<svg xmlns="http://www.w3.org/2000/svg" width="1254" height="1254" preserveAspectRatio="none" style="display: block;" version="1.1" viewBox="0 0 2048 2048"><defs><linearGradient id="d" x1="244.453" x2="302.153" y1="1139.94" y2="1242.47" gradientUnits="userSpaceOnUse"><stop class="stop0" offset="0" stop-color="rgb(168,62,223)" stop-opacity="1"/><stop class="stop1" offset="1" stop-color="rgb(105,136,235)" stop-opacity="1"/></linearGradient><linearGradient id="c" x1="1687.48" x2="1770.92" y1="404.378" y2="555.025" gradientUnits="userSpaceOnUse"><stop class="stop0" offset="0" stop-color="rgb(169,69,223)" stop-opacity="1"/><stop class="stop1" offset="1" stop-color="rgb(107,130,234)" stop-opacity="1"/></linearGradient><linearGradient id="b" x1="864.998" x2="1008.85" y1="514.334" y2="995.566" gradientUnits="userSpaceOnUse"><stop class="stop0" offset="0" stop-color="rgb(189,47,222)" stop-opacity="1"/><stop class="stop1" offset="1" stop-color="rgb(127,111,232)" stop-opacity="1"/></linearGradient><linearGradient id="a" x1="939.949" x2="1275.48" y1="963.591" y2="1737.95" gradientUnits="userSpaceOnUse"><stop class="stop0" offset="0" stop-color="rgb(133,105,233)" stop-opacity="1"/><stop class="stop1" offset="1" stop-color="rgb(14,222,253)" stop-opacity="1"/></linearGradient></defs><path fill="rgb(255,255,255)" d="M0 0h2048v2048h-2048z"/><path fill="url(#a)" d="M1014.78 430.691c2.63 12.917 6.06 23.916 9.96 36.41 44.97 114.227 146.92 215.912 241.56 291.12l-.07-128.763c-.3-15.228-1.03-32.159 13.27-41.872a35.6 35.6 0 0 1 16.75-6.122c7.84-.769 22.2-.409 30.49-.414l53.53-.018 54.38.02c9.33.008 25.75-.434 34.52 1.091 12.64 2.308 24.21 12.318 25.35 25.963 1.57 18.587.06 37.905.56 56.59-.64 19.039 1.15 45.766-.23 63.744.2 37.659.17 75.318-.1 112.977-.02 14.866-.72 44.811 1.68 58.554 26.8 28.706 136.16 68.19 175.72 80.622-45.01 1.178-143.89 8.894-175.67 42.957-39.16 41.97-37.41 123.68-37.73 178.52-.7 118.97-12.04 253.65 50.24 360.07 8.92 11.99 16.19 21.52 26.56 32.51 5.54 4.67 10.89 9.86 16.17 14.85 7.25 4.8 13.58 10.47 20.67 15.4-10.79-1.66-24.12-3.35-34.53-5.96-5.14-.16-24.94-4.16-31.03-5.29-7.33-.48-23.75-3.38-31.78-4.59a1494 1494 0 0 0-204.74-14.97c-21.75.05-43.49.41-65.23 1.08-60.48 2.07-60.15 10.21-59.94-51.16-.07-30.82-.36-61.65-.87-92.47-.16-17.65.98-43.54-2.23-59.86a114 114 0 0 0-18.25-43.02 105.2 105.2 0 0 0-67.81-43.97 103.75 103.75 0 0 0-79.285 17.49c-50.617 35.68-46.766 80.82-47.702 134.95-.508 28.35-.829 56.71-.961 85.06-.008 13.2 1.736 27.61.142 40.32-.776 6.18-4.673 9.36-9.516 12.69l-1.084.73c-19.657 1.6-48.318-.46-68.659-.79-41.051-.89-82.12-.29-123.127 1.78-49.156 2.85-98.15 8.02-146.817 15.5-24.603 3.72-51.961 9.75-75.977 12.31 15.578-10.6 30.279-22.32 43.182-36.15 72.151-77.35 73.172-197.69 72.869-296.88-.142-46.5-1.517-93.37-1.924-139.89-.121-13.74-2.385-27.94-2.799-41.44-9.66-59.57-25.064-100.9-88.065-115.067-45.37-10.198-86.871-13.082-133.124-15.653 16.471-5.197 32.741-11.37 48.815-17.679 179.742-70.552 410.998-244.632 517.289-406.256 16.247-24.705 29.402-50.542 41.183-77.605 6.33-17.376 10.28-29.245 14.36-47.419"/><path fill="url(#b)" d="M1014.78 430.691c2.63 12.917 6.06 23.916 9.96 36.41 44.97 114.227 146.92 215.912 241.56 291.12l-.07-128.763c-.3-15.228-1.03-32.159 13.27-41.872a35.6 35.6 0 0 1 16.75-6.122c7.84-.769 22.2-.409 30.49-.414l53.53-.018 54.38.02c9.33.008 25.75-.434 34.52 1.091 12.64 2.308 24.21 12.318 25.35 25.963 1.57 18.587.06 37.905.56 56.59-.64 19.039 1.15 45.766-.23 63.744-2.98 15.351 2.29 35.268-7.82 46.436-3.05 3.38-12.42-1.48-15.24-.741-19.36 5.2-43.81 7.975-61.51 17.509-17.17 9.256-35.61 9.989-52.24 16.992-20.05 8.442-25.86 14.65-48.23 16.852-7.17.705-11.9 10.221-27.88 10.943-4.55 3.929-11.32 11.738-17.61 10.252-1.01-.24-3.86.132-4.71.622-12.19 7.039-23.4 10.809-36.93 14.688-1.24 1.37-2.48 2.658-3.91 3.825-4.16-.579-11.9-2.315-15.25.046-3.98 2.808-5.35 6.991-9.68 8.224-11.95 3.4-26 7.075-36.14 14.424-4.76 3.445-9.31 2.796-15.01 2.287-2.1 1.736-.69 3.572-2.94 2.813-8.72-2.936-26.31 12.895-31.13 13.152-12.82.684-21.94 3.567-34.05 10.19-.86.47-3.71-1.748-4.42-2.309l-2.09.301c-2.09 4.124-2.4 7.031-5.65 8.512-3.13-4.21-.46-8.452-4.08-9.419-.99-4.538-1.64-8.08-2.28-12.677l-2.74 16.146c-11.6 4.837-14.5 22.525-19.57 23.669-16.74 4.096-36.51 4.726-52.826 9.473-8.652 2.517-28.28 16.97-36.872 21.881-5.795-.347-7.225-.635-12.175 1.463-18.508 7.844-38.238 17.494-57.889 21.134-5.579 1.034-18.037 5.182-21.22 9.752l-3.232-1.73c-3.882 9.26-16.555 8.9-23.709 17.22-1.911-.89-1.013-.42-2.704-1.4l-2.216 4.75c-22.655 9.57-44.747 21.02-67.468 30.43-5.257 2.18-7.431 12.72-18.148 11.58-9.41-1-16.168 1.49-23.487 6.88-10.945 5.48-37.707 12.58-50.166 15.99-1.022 2.42-1.452 3.63-2.796 5.91-5.047 1.84-40.457 15.93-42.61 18.57l-.227-2.46-1.673-.25c-9.66-59.57-25.064-100.9-88.065-115.067-45.37-10.198-86.871-13.082-133.124-15.653 16.471-5.197 32.741-11.37 48.815-17.679 179.742-70.552 410.998-244.632 517.289-406.256 16.247-24.705 29.402-50.542 41.183-77.605 6.33-17.376 10.28-29.245 14.36-47.419"/><path fill="rgb(182,52,226)" d="M1266.23 629.458c-.3-15.228-1.03-32.159 13.27-41.872a35.6 35.6 0 0 1 16.75-6.122c7.84-.769 22.2-.409 30.49-.414l53.53-.018 54.38.02c9.33.008 25.75-.434 34.52 1.091-13.05 4.983-77.26-1.564-95.51 1.152-9.26 1.378-29.43.138-39.58 2.304-3.58.765-2.76 6.342-8.05 5.491l-1.46-1.442c.6-1.306.94-1.572.87-3.025-5.53-.956-20.44-4.626-22.21 2.208 2.44 4.754 10.12 8.311 15.19 9.682 2.15 2.476 2.92 3.816 1.66 7.37-4.65 1.068-10.06-2.388-13.18.781-6.72 6.84-19.45 17.426-29.57 16.992l-.76-.738c-1.36 9.129-8.04 10.883-8.39 15.392-1.12 14.201.5 28.516-.45 42.944-.49-10.231-.12-45.616-1.5-51.796m-251.45-198.767c2.63 12.917 6.06 23.916 9.96 36.41-4.74 2.185-22.39 8.753-24.32 11.009 6.33-17.376 10.28-29.245 14.36-47.419"/><path fill="rgb(255,255,255)" d="M1056.05 901.362c.64 4.597 1.29 8.139 2.28 12.677 2.87 31.875 22.12 67.064 46.67 87.501 29.92 24.9 47.84 26.28 81.74 35.3-7.52 1.24-14.5 2.52-21.93 4.19-63.15 14.16-101.71 64.36-108.77 127.16-13.89-79.79-53.16-119.3-133.583-131.25 6.2-1.16 12.406-2.31 18.572-3.64 60.601-13.14 100.831-54.807 112.281-115.792z"/><path fill="rgb(15,209,252)" d="m1535.55 1594.65-.66.36c-3.33.01-7.44 2.17-10.37 1.34-7.99-.61-5.8-17.44-7.43-18.93-5.11-4.68-6.07-6.7-9.57-13.4l1.47-1.88c8.92 11.99 16.19 21.52 26.56 32.51m2.31 24.29c6.69-1.02 12.13 2.84 15.88-2.96-.56-3.57-.58-2.6-3.68-5.76l1.66-.72c7.25 4.8 13.58 10.47 20.67 15.4-10.79-1.66-24.12-3.35-34.53-5.96m-62.81-9.88c8.81-4.36 24.4-3.26 31.59 3.64l.19.95c-7.33-.48-23.75-3.38-31.78-4.59"/><path fill="url(#c)" d="M1700.42 392.977c2.48-8.479 7.7-18.526 10.19-28.527 2.26-9.069 2.52-18.256 4.84-26.178.83 1.812 1.92 11.928 2.65 15.287 2.17 9.936 4.75 18.761 7.64 28.459 26.6 57.214 62.14 77.821 123.28 86.211-35.39 5.167-63.61 11.556-90.31 37.245-27.83 26.778-37.17 54.117-43.1 90.977-4.64-29.573-10.99-52.28-29.57-76.378-27.56-35.747-60.17-45.768-103.06-51.564 55.5-8.127 89.09-24.947 117.44-75.532"/><path fill="rgb(182,52,226)" d="M1700.42 392.977c2.48-8.479 7.7-18.526 10.19-28.527 2.26-9.069 2.52-18.256 4.84-26.178.83 1.812 1.92 11.928 2.65 15.287 2.17 9.936 4.75 18.761 7.64 28.459-.47 4.348.13 4.687-4.19 7.861-7.24 5.324-12.23 7.672-20.96 6.681z"/><path fill="url(#d)" d="M271.397 1112.69c1.338 2.56 2.246 9.52 2.948 12.92a76.46 76.46 0 0 0 13.822 31.08c16.348 22.18 37.833 28.64 63.741 32.36-49.103 4.99-70.177 26.79-80.15 73.76l-.275.14c-7.271-47.67-33.408-66.55-78.781-73.9 48.213-8.39 69.746-27.41 78.695-76.36"/></svg>