<svg xmlns="http://www.w3.org/2000/svg" width="1254" height="1254" preserveAspectRatio="none" style="display: block;" version="1.1" viewBox="0 0 2048 2048"><path fill="rgb(255,255,255)" d="M0 0h2048v2048h-2048z"/><path fill="rgb(33,43,71)" d="M247.659 769.153c17.258-1.035 42.289-.146 60.358-.307 17.436-.155 46.83-.717 63.536.941a164.24 164.24 0 0 1 111.864 59.437c57.659 71.504 42.796 173.206-27.779 230.276a171.5 171.5 0 0 1-41.122 23.16 173 173 0 0 1-41.399 10.39c-20.269 2.33-45.658.76-66.62 1.18-18.122-.32-36.403.72-54.501-.13-39.273-1.84-31.705-44.05-31.717-70.58l-.014-83.411-.01-87.494c-.006-16.175-.074-32.303.246-48.475.385-19.404 8.29-29.782 27.158-34.987"/><path fill="rgb(255,255,255)" d="m286.314 831.392 45.646-.124c34.919-.033 60.594 1.211 88.239 26.449a98.18 98.18 0 0 1 31.661 69.508c.983 29.954-9.611 54.07-29.661 75.625-38.912 36.8-84.836 29.08-135.679 28.65-1.235-65.361-.144-134.476-.206-200.108"/><path fill="rgb(33,43,71)" d="M1501.11 862.39c27.91-3.734 52.92 5.411 76.1 19.962l.48-.714.82-1.175c4.46-6.474 8.22-10.35 15.89-13.227a28.13 28.13 0 0 1 22.07.926c13.36 6.368 17.39 17.485 17.45 31.387.24 49.988-.27 100.007.06 150.001.52 27.69-.2 54.62-12.71 80.11-35.18 71.71-139.64 77.93-198.18 32.71-14.79-11.42-16.72-24.32-8.22-40.38 10.75-13.07 24.61-15.9 39.61-7.46 7.96 4.48 15.85 10.55 24.29 14.07 37.02 15.42 86.63 4.78 94.68-40.34 1.18-6.63.77-13.2.64-19.91-15.44 11.43-29.47 18.8-48.9 21.07-31.29 3.67-63.54-3.6-88.5-23.22a109.94 109.94 0 0 1-40.91-74.699 117.37 117.37 0 0 1 25.11-87.646c20.8-25.679 47.95-37.883 80.22-41.465"/><path fill="rgb(255,255,255)" d="M1507.81 918.191c32.4-4.056 61.96 18.914 66.03 51.313 4.07 32.396-18.88 61.976-51.28 66.066-32.42 4.09-62.02-18.88-66.1-51.308-4.07-32.426 18.92-62.013 51.35-66.071"/><path fill="rgb(33,43,71)" d="M966.212 855.935c67.448-3.106 124.728 48.881 128.158 116.316 3.42 67.439-48.29 124.959-115.707 128.709-67.873 3.77-125.872-48.37-129.322-116.258-3.45-67.89 48.965-125.641 116.871-128.767"/><path fill="rgb(255,255,255)" d="M968.905 917.209c33.845-1.567 62.545 24.604 64.095 58.446 1.55 33.845-24.64 62.525-58.478 64.065-33.82 1.53-62.485-24.63-64.036-58.448-1.55-33.819 24.6-62.496 58.419-64.063"/><path fill="rgb(33,43,71)" d="M675.73 855.993c67.701-1.689 123.933 51.866 125.546 119.57 1.613 67.707-52.006 123.877-119.711 125.407-67.598 1.54-123.66-51.98-125.27-119.572-1.61-67.595 51.841-123.718 119.435-125.405"/><path fill="rgb(255,255,255)" d="M675.842 917.327c33.541-1.764 62.247 23.81 64.356 57.331s-23.168 62.492-56.666 64.942a61.26 61.26 0 0 1-55.384-27.02 61.26 61.26 0 0 1 47.694-95.253"/><path fill="rgb(33,43,71)" d="M1235.51 858.403c41.76-2.594 89.33 2.991 112.83 42.683a85.4 85.4 0 0 1 10.86 30.213c2.35 14.897 3.37 129.561.08 141.601-2.16 7.88-6.53 14.24-13.83 18.14-8.22 4.39-18.59 4.82-27.34 1.8-8.67-3-14.76-9.52-17.54-18.23-3.03-9.51-1.98-20.49-1.93-30.35.12-24.46 4.03-88.222-5.69-106.297-5.5-10.218-14.23-15.973-25.09-19.254l-1.32-.389c-22.72-4.63-61.56-3.557-62.84 26.022a763 763 0 0 0-.71 36.733l.25 60.805c.03 8.1.53 21.3-1.06 28.8-.99 4.75-2.99 9.24-5.86 13.16-15.79 21.33-54.38 10.8-54.78-18.1-1.81-38.07 1.89-79.063-.24-116.898-3.61-64.125 33.18-85.23 94.21-90.439"/><path fill="rgb(77,112,254)" d="M1703.55 866.089c30.51-1.229 64.15.466 95.1-.201 19.18.455 39.59-.894 58.65.745 11.18.96 21.04 13.309 21.55 23.986.23 4.611-.26 12.685-3 16.419-9.69 13.232-21.18 25.538-31.8 38.111l-76.04 90.781c27.46.49 66.4-2.37 92.33 1.69 22.54 3.53 28.96 41.41-1.14 53.47-7.21 1.69-25.06.96-32.88.96l-66.15-.22c-17.33-.03-34 .45-51.88.11-20.22-.38-33.33-20.59-24.48-38.93 3.98-8.24 13.91-18.1 19.48-25.6 4.57-6.15 10.32-12.68 15.26-18.75a5737 5737 0 0 1 71.01-86.387c-19.34-.387-79.11 3.204-92.86-3.431-6.33-3.057-11.55-8.215-13.84-14.948-2.49-7.356-1.69-17.508 2.02-24.352 3.92-7.232 11.16-11.015 18.67-13.453"/></svg>