<svg xmlns="http://www.w3.org/2000/svg" width="500" height="500" preserveAspectRatio="none" style="display: block;" version="1.1" viewBox="0 0 2000 2000"><path fill="rgb(34,42,70)" d="M237.647 751.364q40.498.489 81 .262c14.811-.03 34.531-1.189 48.739.513 141.616 16.962 188.156 192.301 80.228 281.411-4.945 4.35-13.064 9.82-18.801 13.04a185.3 185.3 0 0 1-55.445 20.05c-10.845 2-21.765 2.35-32.76 2.17-29.574-.72-59.838.61-89.316.62-20.615 0-36.009-11.12-36.072-32.32-.254-84.977-.44-169.946-.021-254.912.077-15.759 8.074-24.995 22.448-30.834m43.777 254.186c12.686.76 26.3-.14 38.45.71 36.752 2.56 64.612-1.2 92.457-27.634 14.577-19.234 22.94-28.691 26.564-53.556 5.42-37.188-6.398-69.247-35.804-93.28-29.281-23.93-64.974-18.448-100.044-18.327-5.219-.002-17.953.707-22.193-.204-2.257 36.793-.231 80.163-.867 117.745-.275 16.183-.77 62.101 1.437 74.546m1173.716-163.44c37.21.914 51.28-4.452 84.92 19.022 2.97-4.865 5.66-7.953 10.36-11.319a28.02 28.02 0 0 1 21.46-4.954c30.01 5.446 24.2 40.089 24.18 63.374l-.23 57.956c-.2 36.521 2.61 77.221-3.55 112.901-12.49 70.15-91.35 96.4-153.63 79.66-25.26-6.79-69.65-22.54-60.83-56.16 3.3-8.34 6.39-11 12.71-16.99 16.64-2.11 25.74-2.67 39.61 7.96 11.18 8.57 24.54 12.32 38.44 13.98 34.47 4.1 65.1-16.82 68.62-52.58l1.24-11.89c-10.76 8.19-23.57 16.06-36.95 18.84-151.88 31.62-198.99-182.859-46.35-219.8m26.39 168.89c31.42-.99 56.12-27.215 55.23-58.641-.9-31.426-27.04-56.209-58.47-55.419-31.57.795-56.49 27.085-55.6 58.653.9 31.568 27.27 56.407 58.84 55.407m-544.943-175.346c66.353-6.937 125.723 41.369 132.413 107.752 6.7 66.384-41.83 125.564-108.234 132.024-66.064 6.41-124.878-41.8-131.538-107.845-6.66-66.04 41.343-125.03 107.359-131.931m14.931 178.876c32.707-1.28 58.132-28.912 56.702-61.612-1.42-32.701-29.164-58.009-61.858-56.438-32.493 1.562-57.612 29.095-56.192 61.594s28.843 57.736 61.348 56.456m-297.685-179.085c66.648-4.996 124.585 45.307 128.994 111.997 4.408 66.688-46.404 124.178-113.13 127.998-65.9 3.78-122.525-46.27-126.879-112.133-4.354-65.864 45.192-122.928 111.015-127.862m8.9 179.255c32.573.33 59.284-25.734 59.749-58.306.464-32.571-25.493-59.389-58.062-59.987-32.759-.601-59.767 25.539-60.234 58.3-.467 32.762 25.784 59.663 58.547 59.993"/><path fill="rgb(34,42,70)" d="M1204.27 837.529c40.73-4.024 89.25 4.114 112.9 41.224a66.4 66.4 0 0 1 9.61 25.755c2.49 15.978 3.58 132.282.79 143.652-1.79 7.28-4.75 12.7-11.28 16.58-6.99 4.16-17 7.16-25.05 4.71-9.3-2.83-17.33-9.54-20.78-18.75-3.67-9.78-2.66-21.26-2.61-31.54.13-25.401 4.48-83.531-6.5-103.613-6.24-11.406-14.83-15.636-26.64-19.3-8.34-1.982-18.5-1.79-26.96-.763-11.51 1.396-22.81 5.807-28.49 16.597-6.58 12.504-3.44 83.605-3.2 103.459.11 9.39 1.04 19.62-.59 28.88-.9 5.12-2.95 9.99-6.29 14-5.41 6.5-14.27 11.09-22.7 11.73-8.26.63-16.99-3.39-22.89-9-7.21-6.85-9.34-15.53-9.6-25.2-.57-22.35.32-44.859.26-67.235-.06-23.707-2.89-49.274 1.87-72.549 2.35-11.472 6.65-21.882 14.87-30.475 14.63-15.283 34.44-20.898 54.44-25.128 6.33-1.341 12.32-2.933 18.84-3.034"/><path fill="rgb(77,111,253)" d="M1662.98 845.142c28.29-1.125 60.72.418 89.49-.249 11.69-.272 50.32-.672 60.39.727 4.8.656 9.29 2.734 12.9 5.966 9.4 8.5 12.68 25.695 5.15 35.898-20.35 27.582-44.53 53.305-66.35 79.807-12.43 15.106-25.02 30.483-37.94 44.889 14.91-1.89 83.08-2.28 94.2 2.42 5.86 2.47 10.36 6.66 12.68 12.64 2.65 6.85 2.73 16.71-.34 23.43-3.66 8.01-10.52 12.27-18.48 15.22-32.73 1.35-67.6.4-100.48.72-9.48.1-42.68.58-50.13-.66-5.05-.8-9.78-2.96-13.7-6.25a25.84 25.84 0 0 1-8.95-17.72c-1.15-16.47 22.56-40.6 32.78-53.277a3439 3439 0 0 1 73.17-88.17c-16.14 1.463-75.57 2.892-88.22-1.644-6.5-2.329-12.05-6.56-14.85-13.001-2.9-6.647-3.79-17.905-.71-24.67 3.65-8.009 11.43-13.047 19.39-16.076"/></svg>