<svg xmlns="http://www.w3.org/2000/svg" width="1254" height="1254" preserveAspectRatio="none" style="display: block;" version="1.1" viewBox="0 0 2048 2048"><path fill="rgb(254,191,2)" d="M1010.33 210.429c42.17-4.676 115.12 7.695 155.9 19.616 122.18 35.856 225.03 118.935 285.77 230.843 69.01 126.456 77.49 266.694 37.16 403.629-58.54 198.763-231.15 419.553-362.69 578.633-16.89 20.53-34.1 40.8-51.63 60.79-10.31 11.85-24.27 30.17-37.58 37.44-11.8 3.87-23.54 2.69-32.73-6.47-13.682-13.63-26.145-29.01-38.703-43.73a5500 5500 0 0 1-80.411-96.8 3511 3511 0 0 1-144.034-190.18c-99.243-140.62-198.676-302.135-206.963-477.636-9.615-218.655 130.921-427.149 341.101-492.737 47.107-14.7 85.774-20.831 134.81-23.398"/><path fill="rgb(255,255,255)" d="M1005.69 311.176c223.81-10.978 414.01 161.866 424.42 385.707 10.42 223.841-162.91 413.597-386.77 423.447-223.073 9.82-412.011-162.752-422.389-385.798-10.378-223.047 161.719-412.418 384.739-423.356"/><path fill="rgb(254,191,2)" d="M848.036 466.267c17.759-1.284 42.272-.593 60.586-.591l105.658.023 118.07-.026c22.25-.038 44.48-.26 66.72.232 8.56-.745 18.7 8.015 19.17 16.603 1.14 20.464.6 41.735.58 62.259l-.03 133.723-.01 197.931c-.01 28.669-.04 57.322.34 85.988.17 13.132-9.48 23.651-23.01 23.164-33.62-1.209-67.8.867-101.34-.899-11.81-.622-15.68-9.907-15.83-20.769l-.01-1.317c.03-17.598 2.74-111.76-2.84-120.785-1.87-3.016-5.88-5.117-9.21-5.986-6.71-1.754-67.859-1.482-76.752-.666-3.555.326-7.865.836-10.883 2.936-3.725 2.592-5.559 7.66-6.382 11.913-1.925 9.953-.723 21.536-.672 31.714l.403 61.099c.06 8.908.975 18.922-1.136 27.609-1.141 4.694-3.614 10.055-8.1 12.419-3.475 1.832-8.031 2.224-11.886 2.468-12.935.82-96.672.94-103.548-1.094-4.326-1.279-8.027-3.39-10.176-7.486-2.686-5.119-3.674-11.043-3.895-16.765-.929-24.015-.02-48.414.035-72.465l.004-128.688-.018-192.564c.006-25.463.352-50.842-.37-76.305-.339-11.967 4.42-18.458 14.532-23.675"/><path fill="rgb(255,255,255)" d="M918.789 679.032c19.237-.447 39.703-.174 59.018-.167 2.86.241 8.4.644 10.175 3.384 6.403 9.887 3.973 26.128 4.351 37.517.387 11.638.09 22.728-.553 34.175-.223 3.969-4.517 6.741-7.408 8.83-11.144.577-63.985 2.643-70.246-3.545-2.755-5.511-3.48-10.758-3.458-16.908.063-18.091-.583-36.397.499-54.44.229-3.82 4.816-6.88 7.622-8.846m148.341.072c9.95-.631 62.77-1.61 69.31 1.994 4.06 5.177 4.79 11.926 4.77 18.348-.06 17.761.43 35.658-.41 53.391-.22 4.455-4.09 7.027-7.28 9.551-18.36 2.215-42.22-.019-60.97.381-10.47.223-12.58-8.269-12.69-17.497-.23-18.555-.33-37.81.29-56.382.16-4.753 3.64-7.145 6.98-9.786m-145.614-135.58c14.626-.117 50.756-1.095 63.037.94 12.82 2.124 7.024 64.778 6.553 76.126-.109 2.625-5.786 5.377-8.165 6.376-20.693.158-46.604 1.723-66.563-1.287-7.449-1.123-6.086-45.715-5.948-52.657.222-11.161-2.517-26.641 11.086-29.498m146.614-.082c12.79-.039 60.15-1.727 68.78 2.607 3.66 4.863 4.24 12.672 4.22 18.61-.05 17.704.56 35.546-.36 53.222-.21 4.145-4.31 6.824-7.34 8.961-20.7.892-43.54.655-64.27-.216-6.4-.269-8.96-8.897-9.06-14.32-.38-20.272-1.28-41.369.53-61.547.28-3.157 5.04-5.892 7.5-7.317"/><path fill="rgb(37,36,36)" d="M693.228 1610.42c22.325-.19 44.65-.22 66.975-.08.238 37.87.222 75.73-.05 113.59l-67.162.04z"/><path fill="rgb(255,255,255)" d="m720.537 1630.52 17.427-.03c-.031 9.12 1.005 69.44-1.075 73.14l-3.639.29-18.038-.14c-.102-22.84-.759-49.22.05-71.76 2.088-2.15.96-1.21 5.275-1.5"/><path fill="rgb(37,36,36)" d="m814.072 1596.48 22.344-.19-.034 165.02-22.72.2.136-83.71-15.654.04-.026 53.41-.059 23.56-21.984-.05.101-155.8 21.96-.03.014 57.69 15.466.12c.423-19.51-.649-41.03.456-60.26m514.538.49 22.2-.11.1 165.27-22.33-.15c-.42-27.8-.05-56.33-.15-84.24l-15.27.01-.02 48.21.02 28.95-22.21-.02v-155.11l22.09-.11.08 57.04 15.2.13c-.05-19.96.04-39.91.29-59.87m-267.25 99.56c36.55-.86 75.87-.18 112.69-.29.02 8.24 1.22 59.89-1.38 63.4-37.55-.44-76.03 0-113.67.05-.02-12.78-.84-52.41.53-62.1z"/><path fill="rgb(255,255,255)" d="M1082.29 1715.39c22.82-.19 45.64-.23 68.47-.14.01 4.44.6 22.12-.86 25.23l-67.43.05z"/><path fill="rgb(37,36,36)" d="M980.075 1691.82c7.629-.12 15.506-.02 23.155-.03l.14 53.04-.03 14.7c-37.731-.77-77.607.01-115.574-.07l-.019-67.46 23.046-.03-.074 15.06 69.339.07z"/><path fill="rgb(255,255,255)" d="m910.876 1724.85 69.067-.09-.048 15.54c-22.492.62-46.597.4-69.065.17z"/><path fill="rgb(37,36,36)" d="M1073.28 1601.18c22.2-1.25 44.11 5.96 51.04 29.47 3 10.3 1.69 21.38-3.63 30.7-7.26 12.58-17.63 17.05-30.81 20.42-59.91 10.1-79.29-67.86-16.6-80.59"/><path fill="rgb(255,255,255)" d="M1077.13 1619.76c11.87-1.62 22.88 6.46 24.9 18.26 2.02 11.81-5.69 23.08-17.42 25.5a22.23 22.23 0 0 1-21.4-7.38 22.2 22.2 0 0 1-3.81-22.31c2.9-7.58 9.7-12.97 17.73-14.07"/><path fill="rgb(37,36,36)" d="M900.959 1601.24c64.436-5.9 74.09 67.7 16.697 79.59-12.373 1.17-23.76-.27-34.378-6.35-27.841-15.93-24.971-56.89 4.428-69.24 4.936-2.07 8.223-2.89 13.253-4"/><path fill="rgb(255,255,255)" d="M904.289 1620.21c31.448-2.16 38.738 31.7 10.833 41.31-5.316.42-9.915.71-14.922-1.33a21.16 21.16 0 0 1-11.942-12.22 20.04 20.04 0 0 1 .584-15.48c3.375-7.28 8.361-9.7 15.447-12.28"/><path fill="rgb(37,36,36)" d="M1208.07 1612.9c21.45-.32 43.33-.17 64.81-.21l-.04 19.68c-13.66-.09-27.33-.08-40.99.03-.47 22.94-.03 47.47.04 70.52 10.91.09 18.57-.29 29.35-1.09l19.73-2.38.42 19.66c-27.81 4.53-45.26 4.71-73.36 4.74zm-57.26-15.73 23.19-.08-.01 90.48-23.31-.07zm-170.744-.18 23.064-.05c.46 28.52.17 57.74.19 86.31l-23.324.06z"/></svg>