<svg xmlns="http://www.w3.org/2000/svg" width="1254" height="1254" preserveAspectRatio="none" style="display: block;" version="1.1" viewBox="0 0 2048 2048"><path fill="rgb(1,180,177)" d="M1003.09 140.5c46.3-3.585 111.75 4.55 156.37 16.068 130.11 32.423 241.74 115.723 309.87 231.21a549.87 549.87 0 0 1 56.25 416.352 638.2 638.2 0 0 1-52.23 136.751 2930 2930 0 0 1-82.38 143.179c-68.87 109.97-145.74 220.71-219.63 327.49l-73.5 105.24c-13.28 18.88-26.78 38.57-40.92 56.81-4.48 5.77-8.38 8.22-14.48 11.81-5.1 2.1-10.51 3.38-16.01 3.76-31.383 1.98-45.442-28.9-61.309-51.26a5317 5317 0 0 1-64.97-92.37 13904 13904 0 0 1-204.203-301.21c-44.307-67.95-103.921-161.452-136.925-235.274a610 610 0 0 1-52.65-208.565 528.6 528.6 0 0 1 131.986-385.891c95.585-107.457 221.818-165.903 364.731-174.1"/><path fill="rgb(255,255,255)" d="M1000.42 230.997c241.4-13.243 447.77 171.848 460.78 413.264 13 241.416-172.3 447.599-413.72 460.369-241.093 12.74-446.927-172.238-459.911-413.314-12.985-241.077 171.789-447.094 412.851-460.319"/><path fill="rgb(1,180,177)" d="M1013.48 391.226c2.31-.174 4.63-.31 6.94-.407 13.63-.525 21.2 4.04 31.16 12.75 10.16 8.884 20.06 18.065 30.04 27.153l70.17 64.175c.05-7.12-.69-22.824.43-29.166 4.25-18.148 35.49-13.536 49.37-13.726 16.84-.231 24.25-1.465 33.4 12.558 1.16 9.556.61 29.473.59 39.535l.04 66.679c30.15 27.114 60.7 54.405 90.53 81.89 6.59 6.073 10.88 13.614 10.66 22.87a26.04 26.04 0 0 1-8.23 18.42c-11.26 10.441-39.18 7.349-55.35 7.151-1.09 76.268 1.39 154.15-.94 230.473-.37 12.316-16.73 28.557-29.14 29.866-18.15 1.913-37.76 1.181-56.25 1.176l-107.2.034-191.222-.119a3216 3216 0 0 0-46.387.101c-19.106.178-42.316 3.241-56.221-11.772-4.38-4.729-9.72-12.713-10.136-19.32-1.497-23.829-.837-48.224-.837-72.156l.012-158.247c-19.383.189-54.18 5.436-62.196-16.757a28.07 28.07 0 0 1 .869-21.313c4.6-9.858 45.209-45.156 55.714-54.837l89.547-82.469 90.243-82.869c15.611-14.3 31.316-28.753 47.052-42.927 5.052-4.547 11.042-6.548 17.342-8.746"/><path fill="rgb(255,255,255)" d="M1021.8 437.682c5.11 3.283 22.29 19.326 27.44 24.013l51.79 47.025 95.59 86.771c22.9 20.587 48.1 42.336 70.17 63.58-11.94-.329-35.17-1.825-36.44 15.589-1.93 26.413-1.01 54.012-1.01 80.624l.17 164.431-200.39.012-210.424-.079c.61-51.947.108-105.125.144-157.161l.029-52.065c.004-10.696.278-20.929-.69-31.61-2.015-22.243-20.854-20.139-37.554-19.939a27760 27760 0 0 1 241.175-221.191"/><path fill="rgb(1,180,177)" d="M1067.57 592.417c25.46-3.389 56.92 8.904 76.36 24.96a104.64 104.64 0 0 1 37.55 71.167c7.02 78.561-72.51 136.855-145.53 110.545-5.79-2.088-13.43-8.359-17.32-2.654-.56 4.563.49 7.945 1.52 12.017 4.35 17.292-13.75 40.013-29.54 21.828-1.907-2.196-7.786-6.425-10.219-8.275l-9.378 9.738c3.358 3.401 7.696 7.222 11.205 10.536 11.554 10.915 8.811 15.561-.87 25.369-19.043 21.821-20.752 12.484-40.145-3.76l-5.579 6.22q.479 9.212.829 18.429a86 86 0 0 1-3.489 4.409c-5.074 5.904-12.132 4.363-19.382 4.48-42.58.689-41.577-2.339-40.555-40.602 5.01-7.587 25.658-29.291 32.803-37.092l68.64-74.757c-4.624-12.111-7.854-22.551-9.03-35.568a105.43 105.43 0 0 1 24.764-77.999c20.386-24.326 46.096-36.406 77.366-38.991"/><path fill="rgb(255,255,255)" d="M1079.11 653.832c19.94-2.345 38.06 11.777 40.65 31.684 2.6 19.907-11.3 38.199-31.17 41.041a36.67 36.67 0 0 1-34.22-13.897 36.66 36.66 0 0 1-4.78-36.627 36.68 36.68 0 0 1 29.52-22.201"/><path fill="rgb(37,37,37)" d="m1376 1684.85 26.65-.05c-2.06 58.15-.53 124.31-.52 183.14l-26.09.05.08-95.27-16.24-.15.07 53.93-.06 33.64-26.36.01c.18-56.95.65-115.36-.08-172.25l26.54-.17-.01 60.84 16.18-.1zm-299.02 110.02 128.03-.16-.03 71.31c-42.27.5-85.65.03-128.01.03z"/><path fill="rgb(255,255,255)" d="m1104.28 1816.98 73.66.02-.17 26.82-73.49.08z"/><path fill="rgb(37,37,37)" d="M1093.29 1688.18c11.95-1.01 22.77.1 33.6 5.8a45.34 45.34 0 0 1 22.9 28.23 43.97 43.97 0 0 1-5.09 34.9c-8.47 13.6-20.34 18.39-34.88 21.93-25.15 1.47-51.86-7.17-58.42-34.65a44.5 44.5 0 0 1 5.51-33.97c8.7-13.67 21.35-19.11 36.38-22.24"/><path fill="rgb(255,255,255)" d="M1096.2 1710.36c12.85-2.45 25.24 6.01 27.64 18.87s-6.12 25.21-18.99 27.55c-12.78 2.32-25.04-6.13-27.42-18.9-2.39-12.78 6-25.07 18.77-27.52"/><path fill="rgb(37,37,37)" d="m645.185 1692.32 100.637-.16-.012 23.39-35.868.03c.491 32.37 15.341 43.75 41.688 57.34-4.861 7.33-9.064 13.09-14.438 20.07-8.261-4.22-12.567-6.47-20.192-11.74-9.959-8.01-12.917-11.71-20.418-22.21-10.099 17.47-25.494 28.83-42.977 38.11-5.826-7.06-11.359-13.13-17.545-19.83 29.615-13.58 43.518-28.02 45.765-61.7-11.979-.43-24.646-.12-36.68-.02q-.078-11.64.04-23.28m599.985 5.84 70.64-.06-.04 23.51c-14.73-.3-29.46-.28-44.18.07l-.23 79.36c13.56.09 23.08-.08 36.44-2.07 3.4-.27 12.34-2 16.08-2.63l1.1 22.21c-24.5 6.52-54.38 5.94-80.02 6.15zm-373.887-2.95 28.65-.02c-.199 46.95-5.35 82.87 35.489 114.39-5.949 6.21-12.202 12.39-18.259 18.52-14.592-12.98-18.954-17.85-28.549-34.66-.467-1.17-1.118-2.15-1.755-3.25l-1.089.51c-8.036 16.84-18.284 28.73-31.667 41.37-6.605-5.86-13.616-11.68-20.345-17.43 42.768-37.03 38.024-66.91 37.525-119.43"/><path fill="rgb(37,37,37)" d="m941.699 1687.76 27.083-.11c-.701 57.29-.028 115.89.026 173.31l-25.58-.02-.621-.53c-1.905-5.27-.785-85.92-.772-97.78l-24.469-.22.255-25.04 24.128-.22c.162-16.46.146-32.93-.05-49.39m40.22-3.02c8.72-.12 17.968.1 26.731.16-1.09 59.52-.59 123.38-.14 183.01-7.61.4-18.649.01-26.523-.02zm-208.486.04 27.679.13c-.941 42.09-.152 87.91-.145 130.26-6.289-.08-22.273 1.53-26.897-1.38l-.437-3.54.086-60.24-32.759.08.031-24.1 32.594-.05a1816 1816 0 0 0-.152-41.16m-100.527 118.18 27.931.11.188 38.1 103.342.06-.074 23.61-131.358.03zm504.684-118.22c9.08-.13 18.51.03 27.62.06-.67 32.85-.2 67.13-.22 100.08l-27.09.1c.03-32.7.66-67.73-.31-100.24"/></svg>