<svg xmlns="http://www.w3.org/2000/svg" width="1024" height="1024" preserveAspectRatio="none" style="display: block;" version="1.1" viewBox="0 0 2048 2048"><defs><linearGradient id="d" x1="1048.35" x2="1058.16" y1="1209.54" y2="1318.03" gradientUnits="userSpaceOnUse"><stop class="stop0" offset="0" stop-color="rgb(95,113,88)" stop-opacity="0"/><stop class="stop1" offset="1" stop-color="rgb(89,95,88)" stop-opacity=".031"/></linearGradient><linearGradient id="c" x1="1062.28" x2="993.079" y1="840.156" y2="419.153" gradientUnits="userSpaceOnUse"><stop class="stop0" offset="0" stop-color="rgb(117,174,67)" stop-opacity="1"/><stop class="stop1" offset="1" stop-color="rgb(161,211,75)" stop-opacity="1"/></linearGradient><linearGradient id="b" x1="1330.23" x2="723.904" y1="971.582" y2="394.714" gradientUnits="userSpaceOnUse"><stop class="stop0" offset="0" stop-color="rgb(118,176,65)" stop-opacity="1"/><stop class="stop1" offset="1" stop-color="rgb(159,211,76)" stop-opacity="1"/></linearGradient><linearGradient id="a" x1="1333.01" x2="805.767" y1="1085.33" y2="308.582" gradientUnits="userSpaceOnUse"><stop class="stop0" offset="0" stop-color="rgb(64,120,45)" stop-opacity="1"/><stop class="stop1" offset="1" stop-color="rgb(139,195,67)" stop-opacity="1"/></linearGradient></defs><path fill="url(#a)" d="M973.859 1221.21c-10.454-9.97-23.521-26.17-33.072-37.35a4857 4857 0 0 1-48.463-56.83 2978 2978 0 0 1-79.976-100.28c-80.564-105.24-178.087-245.269-184.192-382.038-4.654-101.795 32.925-205.293 104.371-278.656 75.337-77.358 173.706-114.221 280.233-118.011 218.71-7.781 415.46 154.463 419.27 380.652a416.6 416.6 0 0 1-17.88 128.497c-42.7 143.29-168.45 304.876-264.61 419.356a3335 3335 0 0 1-43.93 51.15c-8.46 9.61-19.46 21.31-27.33 31.07-4.11 3.62-5.88 5.9-9.27 10.06-10.22 7.69-8.75 8.24-21.18 13.56-1.18.19-2.37.33-3.56.42-16.45 1.36-22.87-10.7-34.01-20.15l-1.45-1.22c-2.68-4.58-31.266-36.2-34.795-37.82zm70.891-289.002c86.47-.526 168.67-39.568 228.93-100.685a291.9 291.9 0 0 0 84.86-206.447c-.5-80.427-35.21-156.41-92.4-212.479-62.51-61.295-157.01-97.557-244.73-93.058-87.368 1.854-166.657 33.08-227.576 96.595a296.33 296.33 0 0 0-83.805 213.233c4.759 179.314 161.423 304.188 334.721 302.841"/><path fill="url(#b)" d="M1008.36 261.076c31.76-1.597 43.91 1.899 72.42 3.214 12.92-.265 27.23 3.652 39.82 6.252 73.1 15.095 138.23 50.77 191.88 102.326 66.45 63.843 109.86 156.605 111.65 249.116.63 32.432-2.97 63.618-9.3 95.401-1.71 8.604-3.06 17.478-5.61 25.871-43.03 141.814-153.87 283.344-247.23 397.064-29.15 35.52-57.6 72.12-89.47 105.25-10.1 10.51-17.92 17.82-33.35 18.14-9.39.2-18.33-4.6-24.84-11.14-16.367-16.45-30.855-35.36-45.775-53.12-23.682-28.2-47.458-56.2-70.702-84.77-65.889-80.98-130.459-162.461-183.101-252.904-14.424-24.781-28.908-50.369-40.142-76.78-20.272-47.664-34.349-101.405-33.81-153.453.113-10.919 1.322-53.825 6.038-61.86.974-11.748 4.685-26.148 7.398-37.705 33.447-142.498 162.016-248.541 305.271-267.622 15.866-2.114 32.956-3.598 48.853-3.28m36.39 671.132c86.47-.526 168.67-39.568 228.93-100.685a291.9 291.9 0 0 0 84.86-206.447c-.5-80.427-35.21-156.41-92.4-212.479-62.51-61.295-157.01-97.557-244.73-93.058-87.368 1.854-166.657 33.08-227.576 96.595a296.33 296.33 0 0 0-83.805 213.233c4.759 179.314 161.423 304.188 334.721 302.841"/><path fill="rgb(172,216,88)" d="M1008.36 261.076c31.76-1.597 43.91 1.899 72.42 3.214-3.19 1.711-44.04-.437-51.72-.525-175.584 3.944-300.601 102.05-360.391 256.695-1.839 4.756-4.003 14.686-6.411 18.356-.435-3.193 2.586-10.54 3.979-14.372 14.296-39.32 32.323-74.94 57.021-108.883 5.234-7.194 21.293-24.728 24.312-30.311-1.869-.816-1.431-.616-3.481-.946-.967-3.215-1.566-3.504-3.928-5.685-41.941 41.229-75.079 104.652-86.372 162.074-1.088 5.535-4.901 25.595-6.362 29.356l-.589-.366c.974-11.748 4.685-26.148 7.398-37.705 33.447-142.498 162.016-248.541 305.271-267.622 15.866-2.114 32.956-3.598 48.853-3.28"/><path fill="url(#c)" d="M916.505 430.146c62.724-2.311 127.635.609 190.525-.013 7.65-.075 16.13 3.656 16.59 12.432 1.39 26.208.49 52.819.5 79.117.34 56.83.35 113.662.05 170.493-.06 24.376-1.4 73.542.7 96.227l.17 1.723q39.945.21 79.89-.134c-.35-22.185.05-45.51.08-67.783-3.63-.105-7.25-.355-10.87-.75-14.01-1.603-28.41-9.064-37.09-20.26a54.84 54.84 0 0 1-10.8-41.345c2.78-17.971 11.6-25.593 24.8-35.624-.59-37.117-5.5-75.186 46.96-79.483 21.25-1.741 45.2 14.332 47.79 36.117 1.59 13.413.35 29.348.48 43.362 29.57 19.594 37.76 53.006 12.38 82.235-5.07 5.844-12.05 9.134-19.11 12.149-10.21 3.351-15.58 3.666-26.38 4.223-.03 20.906-.74 46.989.86 67.41 7.1-.071 34.96-.752 40.25.287 4.98 4.834 2.35 11.248-1.84 15.972-2.07 2.341-7.73 3.297-10.85 3.391-22.81.687-45.74.208-68.58.207l-135-.011c.07-14.621 1.65-67.004-2.01-77.163-6.61-7.485-52.66-6.269-55.11-1.975-5.188 9.064-2.81 68.525-2.545 79.278-29.791-.513-184.112 3.053-196.649-2.65-3.521-1.602-6.708-5.015-8.41-8.418.578-10.648 11.129-4.054 10.426-16.487-.631-11.175-.538-23.002-.537-34.17l-.125-104.151c-.027-13.777-1.767-53.692 3.265-64.271 8.549-6.001 31.52-4.18 42.851-4.103l56.91.326c-.391-6.439-.364-13.479-.294-20.035.411-38.278-1.091-77.013.993-115.171.256-4.685 6.003-8.857 9.73-10.952m-82.218 359.853c9.242-.044 66.872.82 71.499-.26-.973-43.064.578-86.933.176-130.065-.15-16.079.762-35.925-.041-51.635-22.21-.165-50.962.984-72.104.138.451 60.112-.78 121.99.47 181.822m203.523-140.488c-2.83 1.828-4.91 3.324-5.42 6.982-1.39 9.996-2.44 31.282 2.04 39.863 6.26 5.275 31.66 3.845 40.33 2.991 2.29-1.147 4.22-1.736 4.92-4.878 2.13-9.549 3.17-33.808-1.03-41.829-8.42-5.77-30.11-3.843-40.84-3.129m-81.243-175.324c-2.682 1.236-5.461 2.455-6.224 5.434-2.532 9.891-2.807 40.523.698 48.979 5.7 5.795 33.286 3.628 41.907 3.258 2.953-1.718 5.301-2.604 5.98-6.7 1.842-11.073 2.682-37.417-1.251-47.074-6.475-7.052-31.553-4.264-41.11-3.897m-.029 174.965c-3.4 2.038-5.391 3.096-6.146 7.454-1.822 10.516-2.974 29.668 1.458 39.118 3.203 6.83 32.93 4.18 39.676 3.938 10.684-6.166 8.024-19.61 8.774-30.431.7-10.021-.442-20.136-12.657-20.155-10.435-.533-20.709-.161-31.105.076m93.572-86.63c-6.77.202-12.96-.634-17.61 4.191-1.86 7.496-1.98 42.04 1.05 49.497 7.49 5.423 20.14 4.054 29.6 3.994 2.72-.049 13.41.099 14.76-2.579 4.6-9.167 5.48-46.002-1.01-53.16-6.66-2.726-19.12-1.672-26.79-1.943m-12.46-87.922c-2.57 1.524-4.85 2.874-5.24 6.173-1.33 11.283-2.8 37.45 1.21 47.558 6 6.294 30.49 3.795 39.62 3.42 3.24-.466 3.17-.218 5.48-2.462 3.36-7.158 6.43-51.026-4.74-53.947-9.95-2.605-25.59-1.342-36.33-.742m-84.737 88.595c-2.456 2.103-3.911 3.568-3.887 7.308.067 10.435-2.309 37.54 2.785 45.707 3.871 6.206 36.223 4.294 42.627 2.214 8.012-9.294 8.482-44.31.578-53.213-4.769-5.371-33.513-2.176-42.103-2.016"/><path fill="rgb(172,216,88)" d="M862.841 655.372c16.338-.216 25.094-2.346 24.414 18.309-.254 7.711.753 14.631-7.244 18.311-27.775 3.26-27.183-4.437-22.84-32.478.398-2.574 3.552-3.479 5.67-4.142m-3.333 57.757c18.347-.838 29.002-2.548 27.545 20.594-.433 6.887-.017 8.48-5.051 13.862-7.307 2.021-19.485 3.552-24.479-3.589-5.049-7.221-2.809-24.081 1.985-30.867"/><path fill="url(#d)" d="m1078.28 1258.77 2.26.36c4.08-3.09 7.52-6.01 11.28-9.39 3.63-3.26 12.34-14.88 16.25-15.53 2.44 1.03 5.16 2.78 7.16 2.27.06-2.52.03-2.85-.4-5.33l1.7-.39.83 1.14-.65 1.65 1.28 1.41h2.47l.9-1.66-1.38-3.93c4.73-8.97 24.52.95 32.52 1.35l1.52-3.15c4.28-.88 16.62-3.81 19.65-2.22l1.49 3.85c4.43.41 8.7.33 13.15.35.96 1.95.61.86.89 3.32 2.57.62 1.37.82 3.69-.07-.19-1.88-.4-3.76-.64-5.64l1.36-.82c3.45 1.96 6.73 4.34 10.6 4.57l1.07-.81c3.47-2.6 4-3.35 8.04-4.14l1.34.58c1.13 3.41 1.03 3.97 4.1 6.19 6.12 1.44 5.97-5.21 13.92-.34l.24 1.88c.29 2.23.33 2.47 1.53 4.45 2.96.83 2.8.65 5.77-.32 2.46-2.93 2.74-3.96 2.73-8.28 3.67 1.25 4.34 4.8 7.44 7.4 2.79-.9 1.48-.32 3.7-3.37 3.57 2.45.96 5.57 7.18 4.75l-1.44-6.67 1.07-.96c2.56 2.75 1.89 7.36 4.82 8.44 3.41 1.26 13.29 4.2 16.61 4.37 4.08.21 9.82-4.66 14.43-3.71l.24 1.3c-2.44.54-3.34.48-5.01 2.4 4.07 6.41 8.26 1.14 9.06 8.71l3.25.11c1.6-2.41 1.1-1.49 1.78-4.45 2.56-2.33 2.76-2.76 5.98-4.21-1.4 4.28-2.1 3.98-1.09 7.53 2.62 1.63 3.21 1.27 6.32 1.12-.16-2.66.24-1.46-1.11-3.62l-1.14.51c5.78-5.04 4.21-3.84 12.28-2.22l1.57 2.16c-1.14.4-5.88-.69-9.27-.31l-.88 1.11c1.09 2.36 1.86 3.97 2.76 6.44 3.46-.51 1.76.05 4.92-2.76 1.86 7.84-5.27 14.91 4.55 17.3l-.48 1.47-1.54.44c-2.06-1.47-3.53-2.62-5.48-4.24l-2.11.02c-6 10.78-15.6 9.54-26 14.06-2.28.99 1.83 2.16-2.07 3.53l-.49-3.51c-5.96-1.81-6.4-1.43-11.45 2.19-5.11.86-7.48-3.32-12.86-2.48-.59.1-5.64 2.91-6.19 3.28-9.87 6.86-12.51 4.74-23.86 4.95-4.58.08-11.42 5-16.15 6.36-1.82.53-12.17-1.72-13.6-1.21-13.13 4.73-10.88 9.66-27.4 8.08l-.62-3.01c-1.8-.17-2.77-.31-4.52.74-5.48 3.29-24.59 3.28-27.69 6.05l-.57 2.46c-5.96-1.07-9.23-5.27-13.33-4.58-1.85 2.11-1.85 2.07-3.06 4.58-12.69-2.7-10.18-2.32-22.01 1.07-2.35.67-1.54-6.39-14.94.18-6.67 3.26-23.19.98-31.02 1.26-.41.02-4.24 3.84-4.88 4.5-2.29-.5-9.06-4.19-9.55-4.1-4.94.9-21.29-.28-22.69 5.05-7.66-10.9-13.27-2.24-22.25-5.39l-1.36-2.18c-5.506-.07-4.631 3.3-5.764 2.53-3.492-2.38-.768-2.16-5.47-2.57l-1.482 3.51-1.522.4c-9.696-8.54-15.456 6.76-22.539-5.86-6.583.92-8.122 2.86-14.46.77-6.875-2.26-10.949-4.85-16.91.16-1.063.89-5.48-3.09-6.383-3.6-7.373-1.18-18.447-1.27-25.667-1.5-.385-2.83-.232-1.93.582-4.95l-1.189-.98c-8.853 3.85-7.572 11.81-17.903 4.62-3.163-.53-3.133-.21-6.189 1.05-4.87-1.6-.03-3.72-6.405-5.15-1.971 1.32-2.537 1.81-4.297 3.41-3.828-.19-9.726-3.49-13.451-5.26-.791-2.55-.636-1.9-.856-4.54l-2.423-.11c-1.669 1.58-1.528 1.5-2.301 3.69-3.632.42-4.255.33-7.545-2.35l-1.503-1.25c-5.077-1.26-6.581.26-9.687 3.85l-2.16-.14c.531-2.42.682-2.55 1.809-4.79l-1.093-1.1c-6.677 1.1-.412 2.75-6.953 1.67-1.059-1.96-1.568-3.1-2.42-5.16l-2.496-.74c-1.423 1.92-1.145 1.53-2.143 3.7-4.054-.29-5.812-3.49-7.984-6.54-3.425-1.88-4.935-1.49-8.829-1.39l-1.438 1.58c-5.15-8.15-10.619-11.78-11.029-20.21-2.524-1.23-3.287-1.59-5.951-2.41l3.986.04c2.57-2.85.1-5.57-1.651-8.45.124-3.19-.395-3.42 1.104-5.71 6.147 5.61 2.092 7.26 8.008 7.74 4.621-3.71.279-9.71.764-14.06 6.701.64.781 2.69 6.621 2.38l3.05-3.75c6.522-.61 3.679 3.27 8.229 1.16 1.259-3.63 1.829-8.33 4.163-9.56l2.115 1.65c.358 6.59-4.875 1.83-1.291 6.39l2.05-.22c.626-1.1 1.125-2.01 1.703-3.15l2.404 3.16c5.789-.68 5.427-.62 7.651-6.02 2.41.51 2.313.59 4.417 1.94q3.734-1.02 7.416-2.22l1.435.8-5.665 3.46-.346 1.65c1.926 1.56.798 1.15 3.441 1.07 3.193-2.72 3.455-3.61 5.61-7.34l.594.97c.774 1.26 1.502 2.33 2.33 3.54 3.564.49 3.84-.28 6.717-2.72 4.552 2.03-2.004 2.7 4.361 2.93 2.251-2.26 1.558-1.64 2.994-4.74 4.345-1.35 9.088 1.44 12.645 2.53 1.508.46 1.885-4.51 5.054-5.74 1.56 3.09 1.903 5.1 4.365 6.78 5.139-.53 8.416-5.87 12.009-4.95 3.752.96 6.331 4.74 11.24 3.74l1.611-2.44 2.502.07c10.484 12.25 11.512 1.45 21.074 1.85.612 2.44.287 1.56-.533 4.56 3.933 1.39 6.873-2.61 9.559-5.25.94 1.92 1.288 2.68 1.963 4.7 11.034 4.23 9.719-1.73 18.965.95 3.528 1.02 4.315 2.31 7.719 1.18l1.677-3.26c2.781-.63 1.456-.73 4.112.3l.261 4.9c4.363 2.01 13.881 2.46 16.222 4.51 4.551 3.98 8.596 15.16 17.406 14.67l1.45 1.22c11.14 9.45 17.56 21.51 34.01 20.15 1.19-.09 2.38-.23 3.56-.42 9.17-1.8 22.75 6.05 30.88-4.12l-1.41-2.13c-3.92-1.69-7.66-.46-12.08.26l-.95-1.02c2.92-3.05 3.86-3.05 4.74-6.55 3.39-4.16 5.16-6.44 9.27-10.06"/><path fill="rgb(51,50,50)" d="m638.005 1374.01 105.958-.02.022 16.09c-10.652-.09-79.739-1.6-84.343.95-.631 3.4-.736 3.2.125 6.51 17.445-.45 65.875-1.75 81.063.37l1.354.2-.124 34.02c-7.611-.01-38.25-2.61-41.846 2.86-.13 2.82-.379 2.81 1.07 5.15 17.865-.81 40.201-.14 58.393-.09-.367 4.88-.297 10.96-.377 15.94-43.051-1.03-90.242-.28-133.379-.02l-.118-15.9c9.068 0 48.556 1.32 54.315-1.37.262-3.54.703-2.03-.935-4.79-6.228-3.35-31.4-1.92-40.94-1.97-.425-18.99-.205-38.87-.238-57.93m84.143 42.93c-.216-3.15.301-4.74-1.337-6.61-19.786-.71-41.045-.28-60.946-.22.137 3.36-.422 5.58 1.209 7.76 8.523.35 56.042 1.29 61.074-.93m697.142-43.5 10.91-.89c-.5 16.51-.21 33.54-.12 50.1 4.84-.54 11.07-.57 16.06-.75.07-16 .03-31.99-.14-47.98 7.6-.33 12.49-.36 20.06.06-1.3 41.34-.1 90.11-.08 131.99-4.73.09-16.48.88-19.87-1.24l-.1-62.74-15.98.04c-.29 21.14.01 42.78.07 63.96l-20 .17-.06-84.01c-.01-14.13-.69-33.82.31-47.37 2.99-1.63 5.23-1.19 8.94-1.34m-203.14 80.48c34.37.4 69.38 0 103.8 0-.2 17.38-.16 34.77.13 52.15l-104.2-.14c.9-15.04.26-36.49.27-52.01m21.79 34.22 60.14.21c-.02-5.45.04-11.08-.06-16.52-17.63-.44-43.8.93-60.05-.42zm-4.01-115.9c61.55-2.59 70.1 63.64 14.39 75.43-59.34 3.08-71.82-63.37-14.39-75.43m11.94 57.45c7.16-2.54 12.56-5.06 16.05-12.45 2.21-4.6 2.38-9.91.48-14.64-4.22-10.24-14.9-13.16-25.04-12.42-7.39 1.67-12.91 3.05-17.15 10.2a18.27 18.27 0 0 0-1.64 14.78c3.8 12.34 15.75 15.45 27.3 14.53m-138.07 20.54c16.65-1.74 40.28.45 55.02 9.38 10.5 6.38 17.13 20.32 8.92 31.31-9.07 12.13-24.26 14.39-38.27 16.74-18.43 1.26-49.24.7-61.85-16.04-5.61-7.46-4.53-13.92-2.87-22.4 11.45-14.25 22.39-15.46 39.05-18.99m17.67 41.75c7.53-.51 28.82-2.07 25.78-14.41-1.3-5.25-11.19-9.48-16.01-10-4.92-.53-11.17-1.17-16.26-1.26-5.41.41-10.93.61-16.21 1.87-17.37 4.14-16.06 16.94.18 21.34 7.07 1.92 15.11 2.57 22.52 2.46m-144.769-42.51c17.103-1.38 50.659 5.73 51.609 27.51 1.06 24.34-29.26 30.44-48.06 31.05-71.379 1.8-79.427-55.73-3.549-58.56m8.645 42.1c43.114-8.48 13.724-28.61-18.416-25.25-7.794 1.24-21.492 3.25-21.686 12.97 6.298 13.21 27.495 13.26 40.102 12.28m-311.973-33.34c14.013-1.47 48.104-.77 58.354 7.33 32.426 25.62-10.854 38.63-28.507 41.99-15.784 1.51-46.648 1.05-59.079-9.26-31.269-25.94 11.373-36.84 29.232-40.06m28.038 33.24c6.86-1.36 12.744-2.23 18.101-7.1 4.639-12.36-36.557-11.65-42.885-10.96-5.317.37-20.851 1.96-20.905 8.69 8.139 11.65 33.06 10.35 45.689 9.37m162.696-33.56 20.432.14c-.747 15.37-.368 32.53-.325 48.05-29.157-.45-59.235-.07-88.464-.07l-18.422.07c.834-12.48-.241-26.27.712-40.32 8.945-.07 84.105.65 85.755-.65zm-.467 31.92c.007-3.41.615-4.92-.86-7.39-19.477-1.52-44.498.25-64.722-.39.362 3.94-.215 5.13 1.761 7.85 18.079 1.05 45.027.02 63.821-.07m-58.324-88.35c11.996.06 23.594-.11 34.266 6.69 10.666 6.79 15.96 20.64 7.949 31.64-7.342 10.09-18.551 12.66-30.279 14.27-14.266.82-28.331 1.2-40.359-8.18-10.574-8.25-13.608-23.29-3.57-33.39 9.327-9.38 19.537-10.44 31.993-11.03m7.944 37.37c26.519-5.34 18.196-24.17-7.896-22.53-28.869 4.08-18.419 24.4 7.896 22.53m520.85-60.73c20.48.18 40.96.13 61.44-.16-.46 6.36-.42 11.7-.37 18.07l-40.54.02c-.88 20.42-.19 46.47-.19 67.33l15.81.21c8.3.29 17.32-.3 25.68-.67-.31 6.67-.19 12.47-.03 19.15l-62-.07c.07-34.25-.5-69.79.2-103.88m-366.54 22.25c4.512-.08 10.545.45 15.164.71-.891 8.5-.581 20.42-.603 29.19 19.549-.47 40.379-.14 60.029-.17-.18 5.29-.11 10.71-.11 16.01-17.79.19-35.59.18-53.391-.04l-75.503.22v-16.25c15.346-.44 32.38-.09 47.861-.11-.485-9.22-1.978-18.28.032-27.15 2.722-2.67 1.842-1.83 6.521-2.41m144.66.08c2.68-.27 2.96-.54 5.46.27 3.1 5.21 2.15 22.16 2.29 29.32 20.06-.09 40.13-.07 60.19.05.12 5.35.32 10.7.59 16.04-19.86.15-39.72.13-59.58-.04a3073 3073 0 0 0-68.57.47l-.45-16.31 45.88-.2-.11-29.1z"/><path fill="rgb(51,50,50)" d="M1070.01 1373.8c31.16.78 65.47.03 96.89.16-.29 17.29-.22 34.9-.32 52.22-7.18-.1-13.46-.39-20.57.66-.11-12.21-.09-24.43.05-36.65-24.43.17-51.87-.54-76.02.46zm-136.003.05 95.393.07c-.26 7.12.59 49.23-1.6 52.21l-19.81-.13.05-35.51c-23.477-.39-50.669-.34-73.985.66zm-65.769-.68c6.991-.4 13.312-.34 20.319-.29-.769 9.01-.448 20.07-.419 29.27l19.913-.12c-.174 5.9-.119 12.1-.149 18.03-6.002.11-13.05-1.29-18.01.75-2.586 3.09-1.698 2.66-1.775 7.87l.089 20.08c-8.284.78-11.94 1.19-20.118.46-.023-24.83-.479-51.35.15-76.05m447.662.28 3.13.46c2.13 3.12.71 66.16.56 74.14l-16.84-.05-2.76-.09c-2.2-3.01-.93-64.93-1.03-74.12 5.67.05 11.28-.17 16.94-.34m-485.633 10.06c9.36-.41 16.533-.14 25.814.28l.064 14.39a2683 2683 0 0 0-62.156.04l-24.028-.05c-.407-4.86-.382-9.66-.439-14.54 17.389.85 43.142.12 60.745-.12m-40.23-17.36q23.09.12 46.178-.21l.277 12.29c-6.524-.03-41.623 1.57-44.771-.43-2.012-4.2-1.629-7-1.684-11.65"/><path fill="rgb(72,89,67)" fill-opacity=".255" d="M1047.83 1282.39c12.43-5.32 10.96-5.87 21.18-13.56-.88 3.5-1.82 3.5-4.74 6.55l.95 1.02c4.42-.72 8.16-1.95 12.08-.26l1.41 2.13c-8.13 10.17-21.71 2.32-30.88 4.12"/></svg>