<svg xmlns="http://www.w3.org/2000/svg" width="1254" height="1254" preserveAspectRatio="none" style="display: block;" version="1.1" viewBox="0 0 2048 2048"><path fill="rgb(254,99,0)" d="M1004.33 186.429c42.48-2.934 98.99 4.535 140.18 14.475a512.75 512.75 0 0 1 316.98 231.152c72.6 118.972 92.25 263.819 58.11 398.535-29.34 115.725-96.04 219.549-162.44 317.449a4000 4000 0 0 1-234.64 309.76c-12.27 14.64-73.67 88.79-86.51 96.62-13.41 5.39-25.69 5.26-36.574-5.42-10.662-10.45-20.337-22.24-30.119-33.56a4418 4418 0 0 1-55.77-65.67 3954 3954 0 0 1-234.434-311.12c-43.843-64.87-93.311-141.923-124.415-213.32a576.7 576.7 0 0 1-48.278-202.422 515.5 515.5 0 0 1 129.763-364.834c97.237-107.846 224.217-164.163 368.147-171.645"/><path fill="rgb(255,255,255)" d="M1001.77 286.9c235.87-11.064 436.03 171.237 446.99 407.116s-171.43 435.954-407.31 446.814c-235.74 10.84-435.663-171.406-446.616-407.137-10.953-235.732 171.209-435.735 406.936-446.793"/><path fill="rgb(254,99,0)" d="M1018.62 423.296c14.39.186 18.42 4.015 28.8 13.511 56.79 51.958 113.54 104.174 169.66 156.833a2388 2388 0 0 1 65.09 62.778c12.62 12.662 54.22 45.658 17.55 60.421-6.63 2.668-41.29 1.179-50.98 1.168-1.35 82.659 1.36 166.576-.62 249.282-.31 12.963-11.67 20.649-24.01 21.14-21.46.852-43.24.461-64.86.456l-135.75-.029-139.961.008c-22.673.025-45.791.603-68.382-.571-27.7-1.44-23.41-32.166-23.278-51.487l.128-46.922-.055-171.832c-17.906-.251-58.906 6.462-64.159-14.621a20.6 20.6 0 0 1 2.88-16.584c5.45-8.046 32.616-33.969 40.602-41.837a7064 7064 0 0 1 137.015-128.932l60.463-55.897c11.363-10.48 22.91-21.465 34.907-31.214 4.64-3.767 9.18-4.512 14.96-5.671"/><path fill="rgb(255,255,255)" d="m1020.94 470.837 232.7 212.785-6.71-.132c-21.47-.364-31.16-.517-31.23 23.853-.07 26.231-.15 52.564-.17 78.799l.24 167.709-190.27.069-200.311.038c-1.883-83.981 1.816-169.005-.508-253.027-.58-20.948-20.92-17.549-36.196-17.158z"/><path fill="rgb(254,99,0)" d="M956.662 670.27c27.967-1.635 46.018 7.95 64.258 28.439 15.33-18.284 34.82-29.408 59.24-28.572a69.57 69.57 0 0 1 48.35 22.24 74.42 74.42 0 0 1 19.43 53.172c-2.13 45.612-42.36 79.232-73.96 108.168-10.56 10.257-37.43 37.057-50.32 41.642-10.19 3.626-36.501-22.987-45.021-31.182-22.137-21.295-48.583-42.599-66.762-67.61-35.458-47.828-18.216-116.387 44.785-126.297"/><path fill="rgb(35,34,35)" d="m971.371 1639.25 22.611-.11.041 66.04c-15.363-.2-31.146.03-46.542.07l-.171 15.62c21.467.32 43.989-.04 65.53-.07.06 4.33 1.11 15.73-1.82 18.36l-152.993-.1-.003-18.06c21.823-.31 44.075-.15 65.933-.19l.04-15.57-46.532-.02c-.233-21.91-.209-43.83.07-65.75l22.495-.21.007 15.65h71.047z"/><path fill="rgb(255,255,255)" d="M900.198 1671.99c23.615-.23 47.231-.24 70.846-.01l-.07 15.48-70.965-.21z"/><path fill="rgb(35,34,35)" d="M767.177 1745.41c20.339-1.74 63.65 1.37 67.683 27.4a22.6 22.6 0 0 1-5.011 17.99c-9.832 11.96-29.007 15.05-43.6 16.18-19.932 1.18-44.955.9-61.766-11.63-10.985-8.18-14.441-23.15-4.562-33.75 12.175-13.05 30.521-14.9 47.256-16.19"/><path fill="rgb(255,255,255)" d="M774.469 1762.44c8.536.18 35.444.39 37.014 12.72 1.733 13.61-24.792 14.36-34.255 14.83-7.748.05-27.201-.39-32.366-4.71-24.241-20.27 21.997-22.54 29.607-22.84"/><path fill="rgb(35,34,35)" d="m1041.78 1643.9 128.28-.04.05 18.14-50.67.04c8.93 29.17 30.91 33.96 57.21 39.48l-8.83 18c-9.35-1.9-15.11-3.1-24.07-6.12-17.06-6.32-27.46-14.13-37.25-29.22-13.71 22.68-37.13 30.85-61.94 35.4l-8.49-18c26.02-5.33 48.05-11.3 57.09-39.43-15.8-.67-35.26-.16-51.35-.16zm285.6-8.41 20.23.02c-.22 34.98-.16 69.95.16 104.92-7.5-.05-15 .01-22.5.2-.04-14.52 0-29.03.12-43.55l-16.07.01-.08 39.16c-.24 1.6.07.76-1.28 2.37-5.94.91-14.08.4-20.28.23-.13-33.53-.08-67.05.16-100.58l21.41-.14.14 39.83 15.86.09c-.12-11.32-.59-30.66.42-41.38zm-509.91.03 16.616-.1-.12 107.75-21.947-.03.04-45.49-16.075.12c.024 7.93.595 32.06-.433 38.58l-1.464.85-19.445.15c-1.051-31.22.015-67.52.037-99.05 7.014-.04 14.218.12 21.249.19l-.054 40.13 16.173.09c-.092-11.95-.711-30.23.239-41.63 2.04-2.18.898-1.23 5.184-1.56m388.42 11.3 66.39-.07-.04 17.91c-14.67.27-29.75.08-44.45.07l.03 14.77c12.84.56 28.3.17 41.34.16l-.1 17.7c-6.59-.09-36.21-1.12-40.61.98l-.49 2.41-.09 14.16c19.63-.47 30.42-1.56 49.77-4.54.63 5.53 1.64 11.63 2.44 17.18-26.84 5.48-47.25 4.67-74.2 4.84zm-177.8 84.11 156.05.15-.06 18.62q-30.165-.21-60.33 0c-1.96-.01-3.33.17-5.3.36-2.71 3.56-1.39 49.46-1.34 57.27l-23.13.35-.03-57.93c-21.66-.35-44.08-.11-65.8-.13z"/><path fill="rgb(35,34,35)" d="M715.344 1678.26c53.865-6.12 66.784 43.18 23.513 57.89-17.473 3.58-40.498-.78-47.291-19.51a27.18 27.18 0 0 1 .891-20.75c4.832-10.23 13.125-13.94 22.887-17.63"/><path fill="rgb(255,255,255)" d="M723.113 1694.17c3.366-.12 6.726-.15 9.968.94a15.48 15.48 0 0 1 8.788 7.67c4.694 9.3-3.027 15.41-10.927 18.01-8.082.37-16.06-.69-19.545-9.25a11 11 0 0 1 .41-9.35c2.475-4.83 6.519-6.41 11.306-8.02"/><path fill="rgb(35,34,35)" d="m1227.01 1748.25 120.4-.07c.1 8.57 1.16 55.4-.65 59.27l-22.14.03c-.14-13.51.08-27.35.15-40.89-30.74-.97-67.03-.19-98.04.04.02-6.08.19-12.29.28-18.38m-352.083 3.72 119.975-.12-.119 55.58-22.874.18.089-37.34-97.182-.1zm-159.586-115.3 21.738-.07.04 16.83 30.657.31.091 17.63-30.117.12-53.689-.25-.02-17.49 31.478-.07z"/></svg>