<svg xmlns="http://www.w3.org/2000/svg" width="1024" height="1024" preserveAspectRatio="none" style="display: block;" version="1.1" viewBox="0 0 2048 2048"><defs><linearGradient id="a" x1="1016.54" x2="1032.33" y1="1194" y2="1327.87" gradientUnits="userSpaceOnUse"><stop class="stop0" offset="0" stop-color="rgb(97,101,117)" stop-opacity=".012"/><stop class="stop1" offset="1" stop-color="rgb(88,91,107)" stop-opacity=".059"/></linearGradient></defs><path fill="rgb(65,70,86)" d="M755.337 955.034c-13.434-16.456-34.84-51.66-46.372-70.403-56.246-91.412-96.992-186.558-85.863-296.186a378.85 378.85 0 0 1 138.461-257.441 424.08 424.08 0 0 1 309.187-90.831 414.8 414.8 0 0 1 275.06 148.492 381.8 381.8 0 0 1 84.15 283.101c-13.09 122.006-91.4 248.384-160.81 347.084a1957 1957 0 0 1-63.31 86.59c-14.05 18-28.34 35.8-42.88 53.41-2.08 2.55-15.23 18.95-16.86 20.36-14.37 18.68-34.94 39.66-48.12 57.62-6.22 5.38-13.93 15.44-19.7 21.84-16.09 15.3-17.39 20.11-40.23 25.57-11.36-2.68-15.93-4.79-25.31-12.58-8.33-8.07-15.673-17.54-23.909-25.15-4.1-5.94-14.018-16.76-18.99-22.43l-37.919-43.25a2579 2579 0 0 1-134.043-166.35c-10.911-14.673-34.391-44.906-42.542-59.446"/><path fill="rgb(44,43,46)" d="M755.337 955.034c7.613 4.796 52.122 68.946 60.547 80.066 47.101 62.17 97.169 120.78 149.053 179.03 16.572 18.61 33.338 40.17 51.813 56.56 6.84 6.07 14.72 7.97 23.32 10.08 5.51-1.51 17.17-5.24 21.88-9.86 28.92-28.39 54.35-62.17 81.75-92.09l2.4.39c-14.37 18.68-34.94 39.66-48.12 57.62-6.22 5.38-13.93 15.44-19.7 21.84-16.09 15.3-17.39 20.11-40.23 25.57-11.36-2.68-15.93-4.79-25.31-12.58-8.33-8.07-15.673-17.54-23.909-25.15-4.1-5.94-14.018-16.76-18.99-22.43l-37.919-43.25a2579 2579 0 0 1-134.043-166.35c-10.911-14.673-34.391-44.906-42.542-59.446"/><path fill="rgb(93,98,111)" d="M813.399 310.349c8.499-6.406 29.546-16.976 39.423-21.481a419.1 419.1 0 0 1 174.738-38.738c24.53-.192 41.54 3.212 64.18 4.251 20.59 2.043 37.34 7.092 56.8 13.315a401.56 401.56 0 0 1 192.09 131.63 362.7 362.7 0 0 1 79.51 262.768c-13.34 132.165-96.07 258.625-172.61 363.836a2558 2558 0 0 1-100.69 130.11c-28.78 34.48-57.41 70.04-90.03 100.92-2.96 2.81-17.3 9.69-20.63 9.11-18.73-3.23-37.998-28.86-48.347-40.81l-42.751-49.59c-61.795-72.68-122.804-143.97-177.225-222.571-76.474-110.456-150.469-234.216-130.683-374.083a374.8 374.8 0 0 1 105.674-214.586c10.64-10.564 57.388-49.811 70.551-54.081"/><path fill="rgb(144,146,157)" d="M813.399 310.349c8.499-6.406 29.546-16.976 39.423-21.481a419.1 419.1 0 0 1 174.738-38.738c24.53-.192 41.54 3.212 64.18 4.251-1.51.678-2.71 1.09-4.39 1.133-7.51.191-15.33-1.304-22.86-1.841-12.76-.912-25.73-1.014-38.52-.687-29.795.761-59.857 6.131-88.499 14.092-5.318 1.478-51.644 16.652-52.19 16.496 12.434-8.087 73.536-22.383 75.989-24.804l-.082-1.386c-2.701 1.393-2.399.637-4.947.992-45.025 6.273-88.595 23.542-128.484 44.957-3.757 2.017-10.62 8.268-14.358 7.016"/><path fill="rgb(11,12,14)" d="M1009.23 306.596q1.35-.141 2.7-.239c86.09-5.642 180.21 29.968 243.51 87.094 62.64 56.524 98.56 132.849 104 216.6a308.7 308.7 0 0 1-77.82 224.093c-60.39 68.932-141.57 103.123-231.86 109.111-48.71 5.205-125.012-14.924-168.591-37.478-75.833-39.247-137.716-104.823-164.37-186.616a311.48 311.48 0 0 1 18.702-235.769c26.326-50.918 67.931-95.663 116.679-125.39 7.092-4.142 13.407-9.376 20.702-13.043 45.707-22.973 85.168-33.967 136.348-38.363"/><path fill="rgb(254,253,253)" d="M1009.76 309.376c83.12-6.373 174.13 25.958 237.17 79.79a311.78 311.78 0 0 1 109.44 215.734 307.17 307.17 0 0 1-73.97 224.916c-59.81 69.272-139.87 104.466-230.15 110.792-168.3 9.537-335.248-119.836-346.517-291.51-5.601-85.318 17.862-162.318 74.19-227.014a332.25 332.25 0 0 1 229.837-112.708"/><path fill="rgb(93,98,111)" d="M824.123 510.388c-.979-41.915 17.55-56.571 57.935-56.648-.134 12.043-1.364 29.223 2.368 40.081 8.007 23.301 42.418 28.237 58.224 10.31 11.129-12.622 8.438-34.695 8.232-50.207l155.048-.021c-.27 17.948-3.76 42.057 12.94 54.27 19.78 14.458 51.14 5.131 55.04-20.566 1.6-10.521.93-22.809.81-33.701 17.97-.113 32.09-.735 46.5 12.909 16.42 15.556 12.83 40.66 12.84 61.88l.01 53.59c.01 59.524.21 119.124-.1 178.644-.29 57.018-45.11 51.152-85.49 51.12l-79.79-.052-130.838-.018c-21.737.013-43.788.356-65.45.092-13.184-.161-28.369-5.534-36.908-15.781-11.611-13.933-11.688-26.068-11.544-42.582-1.977-56.851 1.231-116.048-.093-173.153-.506-21.836-.943-48.59.266-70.167"/><path fill="rgb(11,12,14)" d="M824.123 510.388c-.979-41.915 17.55-56.571 57.935-56.648-.134 12.043-1.364 29.223 2.368 40.081 8.007 23.301 42.418 28.237 58.224 10.31 11.129-12.622 8.438-34.695 8.232-50.207l155.048-.021c-.27 17.948-3.76 42.057 12.94 54.27 19.78 14.458 51.14 5.131 55.04-20.566 1.6-10.521.93-22.809.81-33.701 17.97-.113 32.09-.735 46.5 12.909 16.42 15.556 12.83 40.66 12.84 61.88l.01 53.59c.01 59.524.21 119.124-.1 178.644-.29 57.018-45.11 51.152-85.49 51.12l-79.79-.052-130.838-.018c-21.737.013-43.788.356-65.45.092-13.184-.161-28.369-5.534-36.908-15.781-11.611-13.933-11.688-26.068-11.544-42.582 4.337 11.432 1.395 28.125 13.848 41.294 8.532 9.023 21.042 14.384 33.233 14.758 22.062.677 44.495.552 66.53.601l124.499.114 78.74.146c24.09.032 59.29 4.015 77.68-13.216 11.13-10.423 13.11-22.66 13.23-37.126.48-54.845.18-109.706.22-164.555l.02-60.649c-.02-45.308 4.37-79-54.46-79.131.35 17.789 2.75 36.25-10.25 50.058a36.74 36.74 0 0 1-25.65 11.647c-19.08.441-35.01-12.026-37.7-31.132-1.46-10.364-.65-20.883-.28-31.319-49.89.994-100.23.341-150.25.81.807 17.828 3.424 36.235-9.823 50.25a37.3 37.3 0 0 1-25.998 11.448c-7.752.192-14.863-1.983-21.433-6.031-20.456-12.602-17.112-35.799-16.362-56.361-25.546 1.402-46.912 7.546-52.386 36.767-1.21 6.459-.93 12.021-3.235 18.307"/><path fill="rgb(254,253,253)" d="M896.027 786.072c-10.145 1.788-19.822 2.879-28.689-3.697-8.037-5.96-11.15-14.65-12.307-24.266-1.915-15.912-1.63-195.988 1.197-206.915 5.358-4.721 65.69-3.154 76.392-3.152l112.13.016 96.91-.002c16.59.007 37.98-.566 54.36.424q3.345.206 6.66.697c1.75 12.011 1.24 30.436 1.25 43.022l.02 63.899-.04 66.026c-.03 26.626 6.36 71.762-35.05 63.983-8.22-.775-24.78-.276-33.72-.27l-65.15.043c-56.39.002-117.997-1.319-173.963.192"/><path fill="rgb(11,12,14)" d="M896.027 786.072c-10.145 1.788-19.822 2.879-28.689-3.697-8.037-5.96-11.15-14.65-12.307-24.266-1.915-15.912-1.63-195.988 1.197-206.915 5.358-4.721 65.69-3.154 76.392-3.152l112.13.016 96.91-.002c16.59.007 37.98-.566 54.36.424q3.345.206 6.66.697c1.75 12.011 1.24 30.436 1.25 43.022l.02 63.899-.04 66.026c-.03 26.626 6.36 71.762-35.05 63.983 12.89.073 29.31-5.094 30.82-19.136 2.28-21.106 1.16-46.892 1.15-68.183l-.05-147.645-342.793-.006c-.758 61.098.441 122.428-.094 183.537-.291 33.278-2.482 51.47 38.134 51.398"/><path fill="rgb(65,70,86)" d="M1033.23 683.421c-1.69-26.259.59-51.543 18.01-72.426 20.09-24.084 62.87-23.795 84.48-2.317 28.98 28.823 28.15 97.079-.65 125.361a56.75 56.75 0 0 1-41.33 15.913c-38.53-.9-54.6-28.174-60.32-62.256z"/><path fill="rgb(11,12,14)" d="M1033.23 683.421c-1.69-26.259.59-51.543 18.01-72.426 20.09-24.084 62.87-23.795 84.48-2.317 28.98 28.823 28.15 97.079-.65 125.361a56.75 56.75 0 0 1-41.33 15.913c-38.53-.9-54.6-28.174-60.32-62.256l1-4.409c6 4.807 2.03 51.167 44.49 62.112 73.62 18.977 90.5-79.579 63.86-123.846a52.4 52.4 0 0 0-33.09-24.114c-49.08-11.207-72.43 23.885-74.16 67.019-.21 5.06-1.04 14.223-2.29 18.963"/><path fill="rgb(254,253,253)" d="M1064.54 648.828c-4.07-13.114 9.84-27.718 21.94-31.331a30.7 30.7 0 0 1 24.26 3.16c11.37 6.798 17.71 24.947 15.74 37.566l-1.19.491c.34 11.945.46 20.554-.78 32.513 1.06.246.33.012 1.92 1.217-.77 10.052-5.51 21.957-13.38 28.491a29.24 29.24 0 0 1-22.21 6.418c-24.39-3.178-33.06-32.264-28.85-53.406q1.095-12.577 2.55-25.119"/><path fill="rgb(11,12,14)" d="M1061.99 673.947c1.12 14.562 3.16 35.657 15.63 44.59 26.61 19.063 42.28-4.183 46.89-27.31 1.06.246.33.012 1.92 1.217-.77 10.052-5.51 21.957-13.38 28.491a29.24 29.24 0 0 1-22.21 6.418c-24.39-3.178-33.06-32.264-28.85-53.406m2.55-25.119c-4.07-13.114 9.84-27.718 21.94-31.331a30.7 30.7 0 0 1 24.26 3.16c11.37 6.798 17.71 24.947 15.74 37.566l-1.19.491c-1.08-9.156-2.03-16.171-6.29-24.329-11.17-21.434-38.77-21.647-49.56.145-2.47 4.995-3.48 9.071-4.9 14.298"/><path fill="rgb(65,70,86)" d="M977.899 596.034c9.628-.135 23.961.062 33.161-.778.03 6.602.46 19.588-.5 25.61l-1.65 1.365c-19.333-.886-43.174-.19-62.801-.093l-.012 31.825c8.323-1.798 16.939-2.988 25.435-2.782 73.288 1.775 60.798 104.943-10.055 98.85-22.862-1.965-38.656-7.596-54.581-24.814 4.753-6.372 9.741-11.387 15.207-17.104a70 70 0 0 0 10.778 8.349c16.529 10.187 43.954 13.979 55.424-5.614 6.615-11.301 2.677-25.596-9.421-31.21-17.289-8.022-36.537-1.212-53.419 4.429-3.102-1.035-6.64-2.928-9.642-4.412-.534-27.706 1.09-55.751.324-84.173 19.736.621 42.606-.717 61.752.552"/><path fill="rgb(11,12,14)" d="M977.899 596.034c9.628-.135 23.961.062 33.161-.778.03 6.602.46 19.588-.5 25.61l-1.65 1.365c-1.16-6.832-.85-17.998-.88-25.262-10.104-.365-20.001.07-30.131-.935"/><path fill="rgb(44,43,46)" d="M1133.95 418.088c30.01-2.012 25.67 20.687 25.4 42.168-.22 17.745 5.11 29.331-12.55 39.378-32.05 3.286-25.96-25.967-26.81-48.277-.6-15.585-1.48-25.667 13.96-33.269"/><path fill="rgb(93,98,111)" d="M1134.99 420.284c26.1-1.533 21.72 20.789 21.69 40.363-.02 16.814 4.22 29.539-12.72 37.223-11.03-.084-13.79-3.718-19.81-12.342-1.31-12.478-2.73-41.945.2-54.04 1.48-6.106 5.52-8.4 10.64-11.204"/><path fill="rgb(11,12,14)" d="M910.043 418.197c30.027-2.241 26.226 19.562 25.92 41.52-.25 17.949 4.68 29.946-13.09 39.964-20.504 1.613-27.697-9.739-26.128-28.929 1.666-20.392-7.679-41.513 13.298-52.555"/><path fill="rgb(93,98,111)" d="M911.8 420.586c26.53-2.54 22.634 27.474 22.654 45.146.015 13.501-.18 24.084-12.477 31.721-26.266 1.399-22.541-20.562-22.229-40.462.233-14.871-4.006-30.348 12.052-36.405"/><path fill="url(#a)" d="M1097.98 1236.83c10.62-.1 18.48-20.03 27.23-22.63 1.01-.3 20.57-3.96 21.16-3.96l1.45 2.78c4.04.7 10.78-4.91 18.14-5.79 1.57 2.33 1.11 1.66 1.94 4.5 2.51.02 10.06-6.52 13.68 3.36 4.5.2 9.04-5 10.56-4.89 5.54.4 5.47 8.67 12.88 6.04l2.65-3.03c6.04.31 8.81 3.15 14.31 4.55 2.2.56 10.16.37 12.8 0 13.63-1.96 11.73 1.3 19.77 9.04.41.39 3.86-.27 4.79-.44 2.83 1.79 2.07.55 2.92 3.39l-1.73 3.21c1.57 2.54.49 1.66 3.48 2.59l3.56-.91c2.69 3.26 1.4 5.37 2.05 5.83 3.54 2.52 12.52 7.19 15.24 10.06-4.56 2.98-2.13-4.14-5.81 1.55.62 7.88 1.97 15.19-1.61 22.26-3.51 2.79-1.56 1.95-6.12 2.48l-1.05-.84 3.09-3.52-.34-1.2-3.32-.12c-.82 2.69-.64 1.84-.74 4.66-2.27 2.82-3.5 4.93-6.78 6.4-2.34-.73-2.94-1.95-4.57-3.87-4.34-.38-3.96.19-5.94 4.52-2.13-.3-2.04-.27-3.97-.81l-1.4 1.38.42 2.58-1.24.86-1.11-4.18-1.41-.73-1.7 1.29-.66 4.82-1.52.93c-4.03-1.42-4.85-2.58-7.96-1.48-1.12 4.99-.19 4.6-3.28 7.38-4.67.82-4.33.97-8.96-2.05l-1.82.57-.2 3.89c-4.08 2.02-11.09-.23-17.56 1.91-2.31 12.64-9.91 4.79-18.2 8.55l-.32 2.18-1.85.28c-6.98-9.53-11.1 4.11-21.24-3.01-5.84-.16-18.5 6.47-24.14 8.97-.18.08-1.88-1.59-1.72-1.41-3.71-4.19-.81-3.38-5.51-4.2-1.28 1.14-2.14 1.95-3.32 3.2-3.84-.5-18.83-2.73-21.64-2.3l-1.23 3.25c-3.13.68-9.13-.1-12.57-.38-.68 2.11-.68 2.18-1.07 4.3l-1.18.39-.48-3.44c-4.09-1.6-4.42-.74-9.48-.07l-3.46 3.45c-2.23-.37-1.6-.09-3.39-1.12-6.25-3.58-15.18 3.5-21.57 3.94-3.83.27-1.48-3.3-7.23-2.86-9.54.75-14.87 7.98-19.34-1.79-6.16.09-14.27 2.8-18.24 2.39-2.796-3.52-2.307-4.04-5.871-5.46l-3.757.64-.801 1.31c.614 1.41 1.402 2.53 1.339 4-4.519 1.56-5.68-1.73-7.998-5.3-4.883-2.32-7.347-.7-11.018 3.1-.968-1.69-2-3.24-3.217-4.76-9.269-2.05-10.027 6.05-16.045-2.21-4.907-.45-6.851 1.21-11.141 3.72-2.278-1.41-2.346-2.12-3.789-4.48-7.246-.6-23.792.02-31.108.62-10.108-5.57-6.058-13.34-19.062-1.02-5.655-2.75-14.568-8.29-20.012-6.92l-1.153 3.22-1.417-.49-.307-2.29c-6.061-2.21-8.275-3.11-14.493-2.89-3.526.13-11.342-6.13-15.385-7.22-4.217-1.14-7.382 5-9.842 3.48-5.673-3.51-6.481-8.91-13.492-5.29-4.282-3.27-4.244-5.66-7.523-6.48l-.521 1.77c-.6 1.98-.715 2.33-1.849 4.15-2.249-3.64.854-5.01-1.969-7.9l-.987.53c-2.871 1.51-3.74 2.34-6.912 1.81-1.495-2.86.841-5.11.428-5.99-2.751-4.26-9.103-6.37-13.06-9.6-2.926-2.38 2.22-4.9-.935-6.7-3.403-1.95-14.844-3.96-16.973-6.08l.579-2.62c4.496-2.78 9.188.8 13.209 3.41 2.38-1.28 1.639-.32 2.657-2.6-1.899-2.48-4.412-3-7.416-4.16 3.431-3.35 1.712 1.73 4.888-2.93-.545-1.53-1.064-3.08-1.557-4.63 4.672-2.48 6.594-3.37 10.797-6.73 2.81-.37 3.417.05 6.136.84l1.429-.82c-.191-3.82-1.846-5.92-3.754-9.28l1.86-.46 2.865 3.07c5.828-3.24 15.419-2.72 18.074-5.92a133 133 0 0 0-.493-5.06l1.147-.8c1.439 2.7 1.084 4.75 1.051 7.84 4.516 4.09 10.507-5.19 13.19-6.24 4.585-1.79 6.508 4.37 13.214 2.97 1.296-3.29.919-1.55.417-5.57 6.131-.2 7.479 2.39 11.67 6.69 2.949-1.75 2.388-8.22 4.845-8.33 12.162-.54 22.777 5.29 33.37-.63 6.225-.68 12.794 8.14 15.543 5.19l.433-4.14 1.525-1.07c3.387.9 4.008 1.31 7.087 2.83 7.677-.94 13.494-2.35 20.374 1.85l.766.48c1.942-1.97 1.402-3.31 1.81-6.83l1.422.28c1.094 1.83 2.042 3.47 3.261 5.23 11.747 1.45 18.65-1.46 26.412 9.69 4.202 6.03 11.109 16.37 18.77 18.16 8.236 7.61 15.579 17.08 23.909 25.15-3.29 1.25-3.58-.53-6.89 2.91-.5 3.02 2.12 6.73 3.72 9.67 9.63 7.19 15.77 4.6 25.33 10.65-3.78 2.17-19.14-1.38-23.94.01-1.92.56.13.57-2.31.33.04-1.84.25-1.03-.47-2.47-4.54.59-11.176.52-14.694 1.05 3.178 2.29 9.234 2.46 13.674 4 23.76 8.21 64.77-.57 87.89-9.34-5.28-1.25-2.37-2.52-4.66-2.93-5.93-1.04-7.43 3.33-15.42 3.37l-.31-.69c3.87-2.57 6.14-3.79 9.26-7.35 1.1-3.54 1.47-3.72.49-7.35-2.69-3.34-7.25-3.5-11.56-4.2l-.58-1.38c5.18-7.01 6.89-7.94 15.91-8.07 2.92-.04 1.99-1.8 6.08-4.68-5.51 1.02-10.43 2.85-15.98 3.48 5.77-6.4 13.48-16.46 19.7-21.84"/><path fill="rgb(44,43,46)" d="M827.616 1372.28c37.976-1.77 54.603 17.15 57.561 53.71 2.723 33.66.023 73.24-39.963 81.79-52.931 3.89-60.012-37.35-57.541-79.96 1.619-27.93 10.414-48.14 39.943-55.54m14.799 116.02c17.048-8.45 19.561-28.74 19.822-45.84.34-22.35-1.973-51.76-31.378-49.25-18.445 7.51-19.9 26.56-19.961 44.03-.08 22.77 1.174 53.32 31.517 51.06m228.255-33c12.15-.67 28.53-.13 40.91-.07 25.69.21 51.39.07 77.08-.44-.86 19.46-.28 41.43-.43 61.21-34.49-1.52-83.18-.17-118.24-.27.14-9.62-.72-53.71.68-60.43m21.28 41.02c23.2-.5 50.17-.66 73.36-.02 1.3-3.55.75-17.73.71-22.42l-73.97.06z"/><path fill="rgb(11,12,14)" d="M1091.95 1496.32c23.2-.5 50.17-.66 73.36-.02l.98.49-.31 1.52c-10.65 3.02-49.94 1.95-63 1.12-2.05-.13-8.74-2.33-11.03-3.11"/><path fill="rgb(44,43,46)" d="m1314.67 1368.51 3.33-.44 1.31 1.21c.95 11.72.96 40.99.04 52.92l16.67-.05.05-53.62c8.76.39 15.1.09 23.9-.39-1.47 11.42-.78 38.81-.78 51.21l.07 96.54c-8.25-.16-15.23 1.8-22.2-1.1-2.17-3.4-1.44-2.48-.95-7.54l-.18-66.15c-5.42.51-10.88.74-16.32 1.02l.09 73.8c-7.51-.16-15.88.11-23.46.18.91-9.1.09-37.07.07-47.36l-.07-99.87c6.73.14 11.71.04 18.43-.36m-620.794 5.52c25.411.57 52.685.01 78.325.11-.203 6.38-.145 13.22-.21 19.64-18.323.09-36.647.04-54.969-.14-.414 9.74-.735 19.47-.963 29.21 11.924-1.78 23.499-3.97 35.294.08 9.3 3.1 16.917 9.88 21.065 18.76 11.099 24.05.99 52.79-24.099 63.51-1.766.51-3.542.99-5.327 1.43-21.237 5.08-39.958-1.43-57.923-12.16q5.788-9.24 11.407-18.57c10.83 7.04 17.83 10.99 32.015 11.21 21.981.82 33.118-28.36 16.845-42.11-13.243-11.18-34.342.48-49.63 2.04l-1.746.17c.819-20.67.691-52.49-.084-73.18m396.284-5.89c24.69-.79 52.1 1.76 58.15 32.11 4.61 23.2-10.11 41.55-33.07 45.69-15.36 1.7-28.73 2.01-42.95-5.7-18.85-10.04-24.18-35.06-13.21-52.82 7.15-11.57 18.52-16.38 31.08-19.28m-12.08 32.22c-.83 21.93 8.36 31.48 31.49 27.01 7.03-3.05 12.45-6.26 15.33-13.47 4.58-11.47-5.19-22.63-15.89-25.42-5.64-1.46-11.08-.72-16.58-.34-8.42 3.4-9.43 4.75-14.35 12.22m136.77-26.32 70.17.07-.17 20.01c-14.95-.62-31.82-.21-46.92-.14.58 23.91.04 50.04 0 74.12l18.82-.02c9.75-.01 19.5-.07 29.25-.2-.1 6.53.01 13.35.03 19.91-23.67-.1-47.33-.05-70.99.14-.64-37.52-.17-76.27-.19-113.89m-203.44-6.49c4.86-.08 10-.46 14.87-.74-.69 34.61.12 71.43.08 106.25-7.41-.06-15.19-.38-22.48.83-.12-14.98-.04-29.96.22-44.94q-19.176-.045-38.35.36c-3.945-.04-3.414.58-6.091-1.28-1.892-4.63-1.346-11.49-1.812-16.85 11.757-1.87 33.594-.8 46.033-.5l.13-12.81c-15.318.67-30.647 1.12-45.98 1.36l-.293-19.45c13.078-.85 32.697-.1 46.223.02-.16-3.7-.59-7.09.5-10.59 2.94-2.18 2.52-1.46 6.95-1.66m-91.672 99.69c6.505.92 15.506.38 22.307.19.07 9.75.073 19.5.01 29.24 16.876-1.83 51.692-.59 69.965-.58l14.85-.11c-.07 6.66-.04 13.32.1 19.98-35.853-.22-71.705-.19-107.556.08-.09-16.27.018-32.53.324-48.8"/><path fill="rgb(11,12,14)" d="M942.055 1496.67c16.876-1.83 51.692-.59 69.965-.58 1.15.83.52.24 1.61 2.03l-1.48 1.2c-17.551 2.91-52.472 1.15-70.095-2.65"/><path fill="rgb(44,43,46)" d="m903.832 1373.95 22.303-.02c-.453 20.95-.162 42.97-.196 64.03l50.429.02c-.048 5.94.029 12.1-.534 18-14.955-.01-60.353-.92-72.238.82zm280.738-5.39c1.77-.37 1.1-.26 3.05.35 2.4 6.48.79 64.44 1.41 77.14l-16.6.21-5.4-.36c-1.97-2.49-1.2-68.09-1.4-77.06 5.89.15 12.96-.16 18.94-.28"/><path fill="rgb(65,70,86)" fill-opacity=".31" d="M1078.28 1258.67c5.55-.63 10.47-2.46 15.98-3.48-4.09 2.88-3.16 4.64-6.08 4.68-9.02.13-10.73 1.06-15.91 8.07l.58 1.38c4.31.7 8.87.86 11.56 4.2.98 3.63.61 3.81-.49 7.35-3.12 3.56-5.39 4.78-9.26 7.35l.31.69c7.99-.04 9.49-4.41 15.42-3.37 2.29.41-.62 1.68 4.66 2.93-23.12 8.77-64.13 17.55-87.89 9.34-4.44-1.54-10.496-1.71-13.674-4 3.518-.53 10.154-.46 14.694-1.05.72 1.44.51.63.47 2.47 2.44.24.39.23 2.31-.33 4.8-1.39 20.16 2.16 23.94-.01-9.56-6.05-15.7-3.46-25.33-10.65-1.6-2.94-4.22-6.65-3.72-9.67 3.31-3.44 3.6-1.66 6.89-2.91 9.38 7.79 13.95 9.9 25.31 12.58 22.84-5.46 24.14-10.27 40.23-25.57"/></svg>