<svg xmlns="http://www.w3.org/2000/svg" width="1024" height="1024" preserveAspectRatio="none" style="display: block;" version="1.1" viewBox="0 0 2048 2048"><defs><linearGradient id="a" x1="1032.72" x2="1020.28" y1="1277.91" y2="329.931" gradientUnits="userSpaceOnUse"><stop class="stop0" offset="0" stop-color="rgb(16,120,202)" stop-opacity="1"/><stop class="stop1" offset="1" stop-color="rgb(22,142,226)" stop-opacity="1"/></linearGradient></defs><path fill="url(#a)" d="M1001.5 328.423c3.94-.712 22.19-.641 27.02-.583a374.02 374.02 0 0 1 261.14 112.719c64.52 66.244 99.85 159.625 96.01 252.656-7.33 177.455-148.61 355.325-257.38 487.075-23.59 28.58-59.48 70.31-85.05 94.99-26.38 19.84-46.856-12.63-62.767-30.3a3497 3497 0 0 1-55.945-63.79c-109.628-128.05-244.749-300.477-259.611-474.608-16.847-197.371 138.662-367.06 336.583-378.159m34.1 640.717c159.66-6.043 284.35-140.101 278.84-299.782-5.52-159.682-139.17-284.813-298.87-279.821-160.441 5.015-286.283 139.421-280.74 299.847 5.543 160.427 140.362 285.826 300.77 279.756"/><path fill="rgb(20,124,205)" d="M892.096 498.315c18.383-.731 41.198-.172 59.746-.163l111.568.046 55-.171c11.54-.048 24.24-.536 35.64 1.034 7.27 1.002 10.79 6.294 14.84 11.954 1.49 10.703.7 38.628.67 50.608v91.993l.09 131.101c.02 22.014.35 44.567-.2 66.583-.22 8.852-3.63 11.848-10.11 17.452-24.43 2.263-64.41-.094-91.08.969l.49-23.471c-.55-23.853.88-49.008-.14-72.875-.29-2.844-1.95-10.473-4.53-12.205-9.39-6.294-25.72-3.387-36.56-3.557-11.83-.186-22.48-.864-33.933.043-9.651.86-13.321 5.879-14.119 15.172-.876 10.209-.444 20.997-.409 31.231q.353 32.715-.046 65.428c-110.547-3.335-102.241 26.763-102.279-86.546l.003-155.051c.006-36.354-.251-72.715-.068-109.064.059-11.612 4.498-17.268 15.427-20.511m200.174 127.442c3.33-.859 7.43-1.851 9.23-5.409 4.2-8.303 2.86-17.974 3.4-26.712 2.58-42.175-14.43-36.372-49.77-35.425-16.87 4.852-12.74 21.492-13.48 35.819-.32 6.161-.52 28.543 6.45 30.358 13.04 3.398 30.4 1.752 44.17 1.369m-.95 94.193c16.17-4.21 12.82-19.542 13.4-33.68.33-7.913.78-26.456-7.57-31.216-8.72-3.355-30.47-2.07-40.09-1.701-18.01 1.221-15.08 16.244-15.39 30.636-.17 8.165-.54 28.756 5.04 33.893 9.48 3.608 33.28 2.213 44.61 2.068m-101.731-93.783c11.561-1.57 15.901-6.29 15.881-18.402-.03-11.811 1.52-37.315-5.46-46.438-10.598-4.945-28.169-3.408-40.211-3.114-3.287.811-12.529 3.665-13.286 7.471-2.774 13.948-2.561 41.343.392 54.35 2.131 9.385 33.628 6.39 42.684 6.133m-44.103 34.684c-1.021 55.418-12.595 60.008 46.234 59.145 17.41-4.008 13.01-19.206 13.76-33.133 2.21-41.127-11.596-34.272-43.884-33.501-9.173.837-9.943.834-16.11 7.489m108.654 837.529c44.67.87 92.91.22 137.69-.34l.22 68.71c-2.61 1.58-123.1.64-139.2 1.09.19-8.7-.83-66.54 1.29-69.46m25.87 47.71c22.94-.02 63.12-1.26 84.69.28.04-8.69-.01-17.59.18-26.27-27.54-.01-57.69.61-85.01-.18zm282.08-151.99c8.57.11 17.14.12 25.71.04l.14 173.73c-7.75-.43-16.33-.07-24.35-.35l-.97-1.43c-.37-27.43.56-55.77-.47-83.09-6.06.82-12.32.69-18.44.74l.02 84.05c-9.04-.24-18.08-.22-27.12.04l-.12-122.03c0-15.2-.84-35.28-.04-49.97 2.84-1.63 5.2-1.2 8.8-1.37 6.24.25 12.29-.05 18.53-.28-.36 21.86-.06 44.68-.08 66.62l18.66-.38c1.28-15.38-.05-49.47-.27-66.32m-426.605 4.47c3.68-.21 6.267-.21 9.957-.12 2.172 7.73.594 76.5.576 89.38-28.792-.8-59.926-.24-88.892-.24-3.84.25-4.711.28-8.497-.2-2.806-4.84-1.017-76.84-.763-88.83 28.838.55 58.702.1 87.619.01m-60.528 67.45 44.166-.17a1776 1776 0 0 1-.174-45.81q-22.193.255-44.388.09c.772 14.8.44 30.95.396 45.89m203.683-72.75c68.75-11.29 97.57 77.1 18.87 91.71-27.97 2.66-61.48-5.77-66.58-38.29a43.24 43.24 0 0 1 8.09-32.73c9.8-13.15 24.16-18.26 39.62-20.69m-19.5 38.02c-.12 5.05-.37 10.22-.07 15.24 8.06 14.48 14.26 15.24 30.16 17.08 8.6-.94 15.04-2.39 21.06-9.52 4-4.71 5.94-10.83 5.38-16.99-.6-6.25-3.71-11.99-8.62-15.91-6.38-5.15-13.37-5.98-21.24-5.74-14.33 1.16-18.66 3.37-26.67 15.84m-409.181 31.02c20.473 1.01 46.415.34 67.231.34q53.402.165 106.801-.48l.341 22.94c-24.661-.8-50.632-.73-75.396-1.04l.093 21.95c18.242-1.18 38.633-.92 57.063-1.06-1.454 10.1-.909 29.3-.866 40.27-.063 7.84-.21 14.5.559 22.29q-13.8-.03-27.596.27c.74-11.54.096-28.46-.041-40.41-30.263 1.85-76.312.34-107.916.58l.09-22.69c15.349-.41 37.063-.14 52.179.63l-.133-21.97q-36.344-.045-72.687.36zm572.251-60.32c23.23.91 52.41.58 75.73.25-.24 7.76-.05 15.9.01 23.7-15.89-.55-32.2-.31-48.13-.25-.14 27.68-.06 55.36.25 83.03 10.27-.63 21.33-.4 31.68-.38 7.41.02 14.81-.06 22.21-.24l.24 22.16c-24.82 1.25-56.04-.04-81.98.45.44-6.94.44-14.42.37-21.37-.37-35.65.78-71.73-.38-107.35m-356.102 102.62c9.189.23 18.771.07 27.993.04-.521 13.48-.235 26.83-.061 40.31 34.17-.23 72.169.55 105.839-1-.564 7.03-.107 16.45.046 23.7-39.274-1.14-93.788-.96-133.182.2-.918-21.08.264-41.96-.635-63.25m-199.767-106.35c8.173.38 16.642.5 24.817.34 36.742-.75 74.356 1.19 110.986-.44q.168 28.905-.139 57.81l-27.134-.09c-.168-11.89-.071-23.99-.083-35.89-30.484.36-60.993-.11-91.479.03-5.706.03-11.291-.03-16.955.79.573-6.63.131-15.69-.013-22.55m305.698-4.4c7.754.46 18.921.11 26.929.11l-.011 127.82c-9.083-.67-17.732-.39-26.801.14-.846-42.48.47-85.45-.117-128.07m191.911.13 28.03.02c-.98 20.49.12 42.59-.12 63.18-.09 7.63.73 21.52-.48 28.29l-4.13.31c-8.41-.24-14.4-.3-22.76.24.05-27.05 1.2-65.66-.54-92.04"/></svg>