<svg xmlns="http://www.w3.org/2000/svg" width="1024" height="1024" preserveAspectRatio="none" style="display: block;" version="1.1" viewBox="0 0 2048 2048"><defs><linearGradient id="c" x1="1039.35" x2="1047.93" y1="1205.83" y2="1322.07" gradientUnits="userSpaceOnUse"><stop class="stop0" offset="0" stop-color="rgb(171,85,91)" stop-opacity="0"/><stop class="stop1" offset="1" stop-color="rgb(127,76,80)" stop-opacity=".043"/></linearGradient><linearGradient id="b" x1="1202.35" x2="1199.43" y1="878.448" y2="808.989" gradientUnits="userSpaceOnUse"><stop class="stop0" offset="0" stop-color="rgb(255,148,38)" stop-opacity="1"/><stop class="stop1" offset="1" stop-color="rgb(251,120,37)" stop-opacity="1"/></linearGradient><linearGradient id="a" x1="1330.09" x2="743.553" y1="1008.18" y2="414.293" gradientUnits="userSpaceOnUse"><stop class="stop0" offset="0" stop-color="rgb(207,47,61)" stop-opacity="1"/><stop class="stop1" offset="1" stop-color="rgb(255,80,91)" stop-opacity="1"/></linearGradient></defs><path fill="url(#a)" d="M1005.56 1257.26c-2.19-3.59-26.039-29.89-29.944-34.33a4123 4123 0 0 1-56.487-66.26c-107.188-127.65-254.362-305.646-268.772-476.939-17.494-207.951 148.521-373.615 353.593-385.428a405.78 405.78 0 0 1 294.23 105.062 359.5 359.5 0 0 1 118.41 246.757 404.8 404.8 0 0 1-21.36 152.086c-50.59 151.534-205.41 339.182-313.05 459.252-3.34 3.55-6.09 6.63-9.21 10.38a337 337 0 0 0-8.7 7.76c-26.96 18.13-40.56-.37-58.71-18.34"/><path fill="rgb(253,95,102)" d="M662.374 637.046c-.39-5.34 1.635-23.749 2.361-29.08a336.22 336.22 0 0 1 129.404-223.889c74.437-55.938 176.928-90.919 270.661-77.85 7.27-.193 13.12 1.49 20.08 2.132 14.87 1.277 27.79 4.509 42.16 8.162a389.44 389.44 0 0 1 199.35 125.233 344.8 344.8 0 0 1 79.97 254.096c-15.22 171.415-145.74 325.83-250.33 454.49-29.49 34.77-57.84 71.75-90.93 103.11-13.16 12.48-33.69 14.14-45.61.2-58.575-68.49-121.883-139.38-176.885-210.42-79.611-102.82-164.837-221.692-180.709-353.829-1.151-9.749-2.719-45.435.478-52.355"/><path fill="rgb(254,163,165)" d="M662.374 637.046c-.39-5.34 1.635-23.749 2.361-29.08a336.22 336.22 0 0 1 129.404-223.889c74.437-55.938 176.928-90.919 270.661-77.85-2.78 1.299-2.66 1.422-5.62 2.147a394.02 394.02 0 0 0-279.96 104.458c-49.895 46.786-81.426 99.182-100.437 165.286-5.045 17.543-6.714 40.025-10.628 55.289-1.122-6.209 8.401-56.541 11.948-63.166-.759-2.905.012-1.687-2.702-3.556-10.097 1.709-11.168 62.153-15.027 70.361"/><path fill="rgb(255,135,145)" d="M1064.8 306.227c7.27-.193 13.12 1.49 20.08 2.132-5.2 2.777-19.26.633-25.7.015 2.96-.725 2.84-.848 5.62-2.147"/><path fill="rgb(254,254,253)" d="M726.139 642.487c.963-6.239 1.289-13.776 1.936-20.158 7.271-71.706 43.705-136 98.499-182.951a317.56 317.56 0 0 1 187.456-74.811c19.79-1.001 37.18.534 56.82 2.07 10.55-4.787 61.82 11.684 75 16.579 23.55 8.751 65.15 29.694 82.99 46.414l-.7 1.124c26.61 24.028 45.48 39.211 65.91 70.907 6.61 10.257 14.98 28.647 20.37 36.53 4.93 2.253 8.94 13.732 10.88 19.003 7.07 19.159 22.96 76.208 16.62 92.533-.18.464-.34.935-.51 1.4-.12.312-.25.62-.38.93.24 32.885-3.26 65.154-12.76 96.554-6.45 21.292-15.1 35.532-13.07 58.24 1.9 21.261-2.67 44.348-18.65 59.204-21 21.223-36.78 19.157-62.31 25.337-5.36 1.298-33.5 19.431-41.91 23.692a341.9 341.9 0 0 1-149.26 36.422 319.54 319.54 0 0 1-231.082-94.801 290.6 290.6 0 0 1-68.146-105.037c-3.624-9.693-8.796-30.49-11.271-36.434l-2.394-.592c-5.253-10.172-8.27-70.636-4.708-80.845z"/><path fill="rgb(254,71,74)" d="M1070.85 366.637c10.55-4.787 61.82 11.684 75 16.579 23.55 8.751 65.15 29.694 82.99 46.414l-.7 1.124c-7.25-4.169-18.03-13.403-26.54-18.411-44.4-26.123-80.74-37.39-130.75-45.706m243.57 171.554c4.93 2.253 8.94 13.732 10.88 19.003 7.07 19.159 22.96 76.208 16.62 92.533-.18.464-.34.935-.51 1.4-.12.312-.25.62-.38.93-.01-39.398-11.67-77.868-26.61-113.866m-581.849 177.043-2.394-.592c-5.253-10.172-8.27-70.636-4.708-80.845l.67 8.69c-.109 27.7.219 44.911 6.432 72.747"/><path fill="rgb(253,95,102)" d="M917.159 541.458c-.247-14.278-3.808-68.661 4.362-77.793 2.961-3.31 11.212-3.987 15.582-4.351 18.298-1.526 37.432-.381 55.844-.384l100.653.076c13.25.104 25.7-.112 26.07 16.884 1.9 85.588-.72 171.75.76 257.316-23.09 12.852-34.86 24.497-35.82 52.828-.61 18.051-.28 36.156-.29 54.197l-167.077-.1c-28.595-.054-57.254.135-85.834-.565-8.562-.21-12.511-.559-16.759-8.063 4.779-30.044 3.124-48.511 3.135-78.826l.08-96.758c.003-9.974-2.95-53.941 5.745-57.786 18.194-8.043 77.791 2.593 93.842-3.607-1.208-8.346-.382-42.691-.293-53.068"/><path fill="rgb(254,71,74)" d="m917.159 541.458.108-1.254c.843-10.775-.431-45.968 1.205-52.911 3.308 6.466-.625 91.577-.233 106.075l-.787 1.158c-1.208-8.346-.382-42.691-.293-53.068"/><path fill="rgb(254,254,253)" d="M847.553 825.235c-1.619-35.059.147-76.255-.504-111.747-.268-14.656-.943-73.899 2.051-84.738 4.771-4.465 57.538-3.065 66.396-1.932 2.53 12.418 2.77 187.924.444 199.392q-.04.207-.077.416c-1.044 1.616-2.162 3.103-4.404 3.219-12.958.668-53.823 2.4-63.458-2.88z"/><path fill="rgb(254,71,74)" d="M847.553 825.235c8.94 3.071 55.99 1.58 68.31 1.391-1.044 1.616-2.162 3.103-4.404 3.219-12.958.668-53.823 2.4-63.458-2.88zm25.696-147.228c5.837-.486 15.803-1.994 19.437 3.338 3.986 5.847 1.728 23.893.378 30.572-7.071.755-12.661.412-19.751.159-.518-10.419-.595-23.8-.064-34.069m3.422 57.202c3.628-.145 14.147-.775 16.269.817 4.943 3.71 3.533 28.858.826 33.282-5.312.484-12.459 1.608-17.181-.491-2.49-4.704-2.708-29.094.086-33.608"/><path fill="rgb(254,254,253)" d="M987.792 750.009c5.761-3.775 48.848-2.382 56.918-1.762 2.42 18.368.36 43.595 1.26 62.703.99 4.4 2.65 10.676 1.19 14.865-7.09 6.716-50.687 5.624-59.105.575-3.007-5.031-1.486-65.873-1.101-76.488z"/><path fill="rgb(254,71,74)" d="M1045.97 810.95c.99 4.4 2.65 10.676 1.19 14.865-7.09 6.716-50.687 5.624-59.105.575-3.007-5.031-1.486-65.873-1.101-76.488l.838.107.082 1.254c.712 12.191-1.829 68.019 2.21 73.475 11.716 4.064 39.916 2.649 52.926.991 3.53-.448 2.96-11.854 2.96-14.779"/><path fill="rgb(254,254,253)" d="M955.727 583.343a647 647 0 0 1 47.073 1.016c1.09 14.422.43 35.471.4 50.223-.01 3.053-1.4 3.95-3.289 5.355-15.489 1.244-30.332.618-45.794-.138a80 80 0 0 1-.461-3.989c-.655-7.024-1.435-48.165 2.071-52.467m3.36-80.895c8.643-.284 35.425-1.502 42.023 1.171 2.76 7.586 3.58 43.94.65 52.927-.43 1.294-3.144 1.63-4.865 2.123-9.156.122-33.816 1.221-41.509-1.271-3.602-5.466-2.562-45.167-.294-52.645.431-1.419 2.598-1.767 3.995-2.305m-4.439 163.965c14.125-.389 34.416-.68 48.332.152.13 9.573 2.03 50.362-2.12 55.054-15.485.062-31.269.293-46.717-.216-1.078-8.433-2.024-47.985.505-54.99m78.462-82.027c9.56-.417 36.42-1.156 44.7 1.476 3.03 3.647 2.27 49.033-.06 55.254-9.27-.002-38.94 1.236-45.5-1.811-.24-.857-.97-3.481-.97-4.305.04-8.986-2.49-44.858 1.83-50.614m.31-81.078c10.52-1.431 33.02-1.093 43.11 1.09 5.21 1.125 3.65 50.088 1.32 55.207l-46.85-.382c-.36-10.462-2.59-49.339 2.42-55.915m-.76 163.024c13.22-.398 33.65-.456 46.55.315.64 10.69 1.27 46.451-1.21 55.06-9.88.07-38.14 1.094-45.66-1.663-2.29-3.426-2.13-50.418.32-53.712"/><path fill="rgb(255,160,36)" d="M1107.9 798.921c-9.18-40.58 16.45-58.22 52.62-65.805 37.07-7.776 82.78-6.952 116.14 12.869 20.24 12.3 26.25 33.65 16.87 55.117 3.79 4.723 2.65 4.845 4.23 10.79 1.48 20.513-1.2 38.258-19.88 50.49-31.85 20.643-79.27 21.263-115.51 15.23-35.37-5.889-67.03-25.803-58.04-66.683 1.13-5.088 1.5-7.186 3.57-12.008"/><path fill="url(#b)" d="M1107.9 798.921c9.73 16.705 23.23 25.618 42.02 30.108 42.26 10.094 116.24 12.764 143.61-27.927 3.79 4.723 2.65 4.845 4.23 10.79 1.48 20.513-1.2 38.258-19.88 50.49-31.85 20.643-79.27 21.263-115.51 15.23-35.37-5.889-67.03-25.803-58.04-66.683 1.13-5.088 1.5-7.186 3.57-12.008"/><path fill="rgb(254,225,141)" d="M1107.9 798.921c9.73 16.705 23.23 25.618 42.02 30.108 42.26 10.094 116.24 12.764 143.61-27.927 3.79 4.723 2.65 4.845 4.23 10.79-8.41 12.53-13.51 20.105-27.61 27.226-34.87 17.604-87.19 17.434-123.9 6.283-21.96-6.67-31.65-14.874-41.92-34.472 1.13-5.088 1.5-7.186 3.57-12.008"/><path fill="rgb(254,225,141)" d="M1181.18 742.404c26.27-3.281 98.92-1.177 106.04 34.223 5.19 25.843-45.54 35.809-63.06 38.194-31.31 2.096-68.7 2.08-95.93-15.784-26.83-17.601-6.78-39.468 15-48.176 13.07-5.23 23.97-7.056 37.95-8.457"/><path fill="rgb(255,160,36)" d="M1169.77 762.877c2.45-.015 4.9.06 7.35.113 6.01 2.747 9 12.837 13.06 20.084 2.91-5.923 7.09-17.892 14.15-18.867 6.67 2.244 10.17 11.479 14.47 18.296 4.5-7.817 6.51-14.881 14.34-20.505l3.63 1.521c.6 4.079-.22 6.069-1.2 10.184 8.77-.111 19.1-1.602 26.49 3.237l-.17 2.339c-7.07 4.096-15.94 2.986-24.14 2.794-11.02.678-8.2 17-19.26 21.099-5.21-1.387-9.88-13.402-13.97-20.126-12.64 28.6-17.38 24.746-29.4-1.083-9.05.058-17.92 1.551-25.84-2.951l-.17-2.934c7.51-3.992 14.53-3.025 23.01-2.851z"/><path fill="rgb(147,189,72)" d="M1163.02 653.565c-.35-21.097-2.17-40.546 13.6-57.381a45.06 45.06 0 0 1 32.84-14.425 46.22 46.22 0 0 1 34.12 14.062c16.39 17.042 14.77 36.782 14.63 58.343 5.15 4.602 10.03 8.421 12.96 14.803 7.13 14.33 8.54 35.939 5.42 51.393a198.6 198.6 0 0 0-45.03-7.553c-3.57.264-7.03-.292-10.6-.7-32.09-.164-45.2 2.9-75.64 8.53-.57-17.481-2.33-35.871 5.39-51.836 2.94-5.922 7.73-10.405 12.31-15.236"/><path fill="rgb(114,161,48)" d="M1150.71 668.801c.34 5.363-2.06 13.057-2.55 19.122-.49 6.006.96 24.044-.91 28.559l1.11 1.393c2.45.058 4.49-.353 5.97-1.245 8.27-4.985 71.05-7.747 76.99-5.767-4.59 1.198-5.59 1.224-10.36 1.244-32.09-.164-45.2 2.9-75.64 8.53-.57-17.481-2.33-35.871 5.39-51.836m120.46.166c7.13 14.33 8.54 35.939 5.42 51.393a198.6 198.6 0 0 0-45.03-7.553c7.75-5.262 34.1 2.067 43.03 4.806.45-8.536.63-17.157 1.01-25.615.43-9.627-4.79-14.765-4.43-23.031"/><path fill="url(#c)" d="M1088.43 1256.6c1.26-7.33 9.82-10.83 15.09-16.21 9.63-9.81 14.44-23.38 29.89-23.96 5.83-.22 11.61 5.55 14.11-.8l1.34.59 1.03 3.19c5.28.78 11-5.76 17.55-3.09 1.69.69 6.51.84 8.47.06l.34-3.18c6.26-.99 12.31 8.56 17.68 3.16l-.41-2.43-1.96-1.09c-2.04 1.14-1.22.31-2 3.03l-1.29-1.58.32-1.69c2.86-1.47 2.64-1.54 5.8-1.24 3.12 2.21 8.09 6.33 11.55 6.89 1.59-1.03 2.9-1.91 4.43-3.03 3.18.41 6.48 1.22 9.65 1.91 7.38 1.62 14.87-2.16 19.34 4.57l2.14.3.99-.78c2.62-2.03 3.58-3.26 6.84-3.39l1.47.7c.87 4.49.04 4.34 2.74 6.55 6.09-.41 4.64-3.27 12.67-2.59l.36 1.01c-5.24 2.47-3.95 4.34-4.5 10.37l1.02.62c3.5-1.26 4.88-1.99 8.65-2.07l.67 1.41c-1.71 1.72-1.02 1.34-3.24 1.95l-.24 2.27c3.45 3.26 4.35-2.56 7.24 5.33.91 2.49 1.56 3.68 3.56 5.47 4.99.43 7.24-5.33 9.78-9.32 3.46.27 4.08-.26 6.51 1.45-2.34 1.01-3.82 1.54-6.25 2.34l-.82 1.63c1.22 2.26 1.34 2.47 2.98 4.42-2.35 1.14-3.94 1.23-6.48 1.64l-.46 3.44c-2.8-.93-2.86-1.29-5.17-3.24-1.27 1.68-.67 3.47-.61 6.18 4.2 3.46 8.76-1.25 14.29-1.55l.26 1.57c-6.79 4.72-13.29-.47-14.08 9.09-.32 3.92-.11 4.81-2.17 7.39-7.44-.95-.25-2.78-7.77-2.81-2.37 7.48.43 6.8-6.06 13.85l-2.09.7c-3.81-3.03-5.57-4.8-10.67-3.37l-.63 1.23q1.62 2.505 3.36 4.92c-8.5 2.29-19.79-4.74-25.66 8.41-3.08-1.02-4.28-2.45-6.69-4.6-3.02-.57-1.7-.93-4.15.6-.1 2.55.2 2.55-.88 4.81-9.04-.03-15.58-.71-22.26 4.64-8.94 7.16-25.2 1.52-35.84 3.01-1.71.24-7.83 4.07-9.88 5.34-17.74-6.41-7.99 1.24-17.1 3.94l-1.29-2.48c-5.92-.54-7.88 3.45-12.05 3.67-2.61.14-7.04-5.16-12.24-1.45-1.21 3.49-.14 2.65-2.47 3.94l-1.12-.6c-2.44-1.28-9.51-4.66-12.17-4.1-14.66 3.06-29.52 5.34-44.4 7.22-1.21.15-4.82-2.11-5.85-2.69-6.5.62-6.31 6.27-13.22.24-.92-.8-4.99 4.32-9.28 1.79-1.84-3.78-1.39-4.68-4.31-5.9l-1.09.78c-3.76 2.69-4.24 3.22-8.47 4.6-4.915-1.36-2.83-6.43-10.935-5.62-2.719 3.85-1.723 3.75-5.325 4.94-3.114-.54-4.248-2.33-6.489-4.67-3.645-.73-1.978-.93-5.206.24-1.756 3.56-.889 3.17-3.768 4.79l-2.333-.39c.972-2.63.795-1.83 3.065-4.02l-.198-1.26c-10.361-2.91-8.798 6.54-18.435-1.2-.965-2.43-.782-1.64-1.048-4.1-3.698-.27-5.072 2.41-7.608 5.13-3.432-.08-6.928-1.07-10.345-1.81-4.594-6.98-21.975-6.2-30.344-6.69l-1.275-.07-.713-.96c.666-3.33 1.365-3.57.106-5.83-5.631 2.21-7.114 9.42-14.56 8.75-3.082-5 1.142-6.04-1.965-8.93-4.424 1.04-4.97 6.32-9.275 7.08-.196-2.89-.097-2.46.361-5.41-2.321-.95-2.824-.69-5.396-.64-1.594-2.67-2.813-6.26-4.924-6.82-1.564 3.89-1.345 7.36-3.553 9.61l-1.731-.18c-2.08-2.65-6.724-9.25-9.317-10.58-5.957 1.66-4.71 4.83-9.697 5.3l-.832-1.36c3.439-1.5 4.094-1.05 5.667-3.65l-.395-1.93c-3.647-.69-3.927-.05-5.817-2.25l-.177-3.81c-2.47-1.88-1.082-1.39-4.382-1.26l-.579 1.12c-.732 1.38-1.26 2.25-2.092 3.55l-2.122.18c-4.357-3.96-2.453-3.42-8.297-3.35-3.402-2.06-2.804-2.52-5.754-1.94-.567 2.61-.596 2.39-.702 5.05l-1.959.16 2.014-.59-.147.9c-7.305-2.23-8.307-16.9-19.784-13.25-1.635 1.67-2.207 2.25-3.565 4.13-2.503-3.79.212-5.02 3.25-7.99-4.212-10.74-6.164-15.87-2.91-27.82 2.544.22 1.389.08 3.948 2.11l2.675 6.6 1.68.35c3.098-3.08 2.313-1.35 3.255-4.97-1.59-2.65-3.215-3.34-5.822-5l-.014-1.31c4.237-.76 7.812 1.32 10.214.79l.526-1.36-3.05-2.05c-.657-3.87 1.038-4.81 4.463-6.8 9.461-.07 9.951 7.56 13.721 5.92.168-2.71.279-4.62.237-7.36l1.314-.28 1.084.77c3.139 2.2 3.983 3.16 7.585 3.77 2.47-1.02 2.722-2.14 4.15-4.49 6.032-.84 7.179 4.02 13.234 3.96 7.397-4.76 3.964-11.32 10.987-15.52l.597.09-1.318 1.62 1.062 6.88c4.891.92 5.259-.43 9.779-1.93l1.612.81-.46 1.66 1.293.79.593-1.41c1.282-3 1.728-5.3 4.385-6.84 4.831 3.51 2.522 6.59 6.872 6.75a37 37 0 0 1 1.771-4.86c3.721-1.52 1.892-1.34 5.65-.9 6.286 5.53 4.87 6.81 12.744 2.61 3.768.83 7.994 2.3 11.499 1.15l3.299-3.45 2.115.15c1.813 2.45 1.924 3.88 2.635 6.81l1.799.81c1.45-2.01 1.067-1.23 1.694-3.58l10.471-3.08c1.533 2.38 1.189 2.75 1.529 5.77l1.219.86 9.918-2.59.64 1.2c2.209 4.07 1.74 4.4 5.176 5.61 5.082-3.04 1.609-5.05 6.257-6.95 2.088 1.34 1.877 1.41 2.817 3.77l2.849.48.948 1.61 3.856.21c9.946 11.37 15.1 17.89 27.453 26.77l.88-.82c18.15 17.97 31.75 36.47 58.71 18.34l2.42-.19 1.2 1.54c2.15.5 27.14-14.79 31.19-16.92.21-.03 14.18-6.33 16.12-7.13l.02-1.6 1.58.32c-5.76-1.71-22.36 2.44-28.37 4.98"/><path fill="rgb(49,48,48)" d="M1228.34 1360.22c14.27-.68 27.58-.04 40.12 8.08a38.4 38.4 0 0 1 17.02 25.26c5.47 28.44-15.46 44.62-41.24 48.15-24.28 1.28-51.16-4.66-57.52-32.24a37.92 37.92 0 0 1 5.23-29.13c8.64-13.03 22.11-17.3 36.39-20.12m13.41 61.83c17.77-5.69 23.9-18.53 13.99-35.06-9.85-6.4-13.95-7.24-25.9-6.83-31.26 7.88-24.37 44.65 11.91 41.89m-197.34-64c7.8-.14 15.9-.02 23.73-.03l-.12 18.31c20.67-.23 41.34-.25 62.02-.06l.06-18.11c8.59.04 17.19.01 25.78-.09l-.09 52.68.17 15.39c-12.41 1.19-29.44.66-42.3.63-23.13-.13-46.26-.08-69.39.18-.44-10.24-1.42-61.9.14-68.9m23.64 49.87 61.99-.17.02-11.95c-20.49.31-41.62-.28-61.9.26zm-133.62 40.52c17.819-.09 40.028.22 55.545 10.15 11.685 7.48 17.495 22.64 7.645 34.25-12.38 14.59-31.445 16.41-49.172 18.14-18.889.25-42.378-.56-58.67-11.52-11.688-7.94-16.948-23.57-6.283-34.79 12.855-13.52 33.442-15.51 50.935-16.23m23.414 42.26c7.417-1.4 19.968-3.2 19.368-13.07-5.711-11.5-41.925-10-53.338-9.31-6.252.94-24.478 3.84-22.928 12.25 11.834 13.42 40.542 11.85 56.898 10.13m-193.615-41.32c22.077-3.03 73.789-2.24 78.427 26.99 3.646 22.98-23.926 30.82-41.413 33.5-18.916 1.59-56.543 1.88-70.552-11.08-32.775-30.33 9.093-46.85 33.538-49.41m31.998 41.48c8.058-1.27 20.721-2.06 21.822-12.3-5.103-12.59-41.195-10.84-52.549-10.31-8.729 1.49-21.221 2.08-21.144 12.98 6.158 12.78 39.742 10.68 51.871 9.63m456.263-41.47c22.05-1.89 70.9-.78 74.51 28.4 2.96 23.82-28.89 30.72-46.24 32.5-18.42 2.93-47.39.23-63.84-9.98-11.09-6.89-18.56-22.52-9.1-34.04 10.62-12.92 28.91-15.4 44.67-16.88m25.12 42.43c6.94-1.04 24.17-3.06 24.15-11.96-7.21-11.97-33.99-12.23-46.53-11.53-8.28 1.07-22.17 2.78-28.06 9.22-3.29 14.59 41.81 14.52 50.44 14.27m-519.525-97.74 23.065-.09-.069 28.26c21.622.88 51.47.47 73.09-.18q-.091 9.87.222 19.74l-56.451.18c-31.208-.21-62.417-.24-93.626-.08.393-5.33-.062-13.9-.204-19.46 12.839.85 41.393.29 54.484-.22zm160.277.09 22.734-.12c-.371 8.9-.084 19.35-.06 28.37 16.484.98 56.624.67 73.234-.35.41 6.61.39 13.26.47 19.88-15.174.86-39.826.03-55.99.06-31.484-.08-63.181-.4-94.641-.11l-.201-19.42c16.902.47 37.527.66 54.302-.26-.16-9.6-.348-18.43.152-28.05m106.478 40.98c49.92-.91 101.41-.28 151.46-.24-.33 5.97-.17 13.24-.18 19.31l-24.22-.04-32.05-.14c.08 7.51-.01 15.14-.03 22.66l-23.85-.55c-.03-7.27.11-14.64.18-21.91l-71.05-.16c-.27-6.26-.23-12.65-.26-18.93"/><path fill="rgb(49,48,48)" d="m880.014 1362.09 114.127-.01c-.042 16.7.493 35.63-.269 52.04-7.677-.05-14.844-.27-22.485.71-.431-10.97-.291-21.91-.242-32.89l-90.904.05c.05-6.52-.142-13.35-.227-19.9m-158.403 0 113.186-.04c.086 17.66.344 35.52-.33 53.15-5.565-1.71-16.068-1.3-22.337-1.34-.034-10.65 0-21.31.101-31.97-30.221.48-60.437-.43-90.771.22-.114-6.58.065-13.42.151-20.02m576.549-4.69c8.66-.43 15.26-.05 23.96.43-.32 6.69-.52 13.49-.77 20.19l24.92.03c-.22 6.52-.14 13.46-.18 20.01l-24.75-.94-.1 14.87c6.45-.11 18.14-.65 24.12.19l.77 1.65-.02 16.45-24.04-.01c-.2 3.79-.13 7.97-.14 11.79l-23.77-.04c-.28-28.02 0-56.55 0-84.62m-253.43 109.7c7.84-.13 15.68-.2 23.52-.2l-.12 21.3 90.9-.13c0 6.89-.02 13.06-.42 19.93-37.82-.63-76.69.17-114.71-.1.31-7.99-.58-34.6.83-40.8"/><path fill="rgb(168,63,71)" fill-opacity=".063" d="M1088.43 1256.6c6.01-2.54 22.61-6.69 28.37-4.98l-1.58-.32-.02 1.6c-1.94.8-15.91 7.1-16.12 7.13-6.73.96-10.69 1.55-17.3 3.31-3.62 3.41-3.96 4.28-8.81 4.5 3.12-3.75 5.87-6.83 9.21-10.38 3.33.15 3.14.23 6.25-.86"/><path fill="rgb(168,63,71)" fill-opacity=".196" d="M1081.78 1263.34c6.61-1.76 10.57-2.35 17.3-3.31-4.05 2.13-29.04 17.42-31.19 16.92l-1.2-1.54-2.42.19c2.85-2.64 5.76-5.22 8.7-7.76 4.85-.22 5.19-1.09 8.81-4.5"/></svg>