<svg xmlns="http://www.w3.org/2000/svg" width="1024" height="1024" preserveAspectRatio="none" style="display: block;" version="1.1" viewBox="0 0 2048 2048"><defs><linearGradient id="d" x1="1042.21" x2="1051.86" y1="1266.06" y2="1365.67" gradientUnits="userSpaceOnUse"><stop class="stop0" offset="0" stop-color="rgb(120,78,156)" stop-opacity="0"/><stop class="stop1" offset="1" stop-color="rgb(96,69,122)" stop-opacity=".047"/></linearGradient><linearGradient id="c" x1="856.562" x2="778.726" y1="484.469" y2="393.937" gradientUnits="userSpaceOnUse"><stop class="stop0" offset="0" stop-color="rgb(184,103,241)" stop-opacity="1"/><stop class="stop1" offset="1" stop-color="rgb(208,148,251)" stop-opacity="1"/></linearGradient><linearGradient id="b" x1="1078.52" x2="759.172" y1="754.239" y2="395.518" gradientUnits="userSpaceOnUse"><stop class="stop0" offset="0" stop-color="rgb(138,52,216)" stop-opacity="1"/><stop class="stop1" offset="1" stop-color="rgb(172,79,240)" stop-opacity="1"/></linearGradient><linearGradient id="a" x1="1345.85" x2="1027.86" y1="1086.46" y2="698.16" gradientUnits="userSpaceOnUse"><stop class="stop0" offset="0" stop-color="rgb(104,39,172)" stop-opacity="1"/><stop class="stop1" offset="1" stop-color="rgb(151,59,230)" stop-opacity="1"/></linearGradient></defs><path fill="rgb(165,80,230)" d="M774.626 1015.08c-11.669-14.92-25.869-36.285-36.291-52.132-75.818-115.286-126.771-237.118-96.2-377.271 19.959-91.504 82.795-175.394 161.594-225.739a410.85 410.85 0 0 1 313.391-54.25c74.13 16.537 150.54 60.57 202.39 115.684 7.37 7.836 20.48 21.606 26.17 30.53 37.11 43.565 64.18 106.618 74.82 162.396 43.76 229.473-120.06 422.222-252.77 589.072-18.43 23.17-39.11 45.42-57.91 68.36-4.46 5.46-20.97 23.21-23.65 27.86-10.23 8.79-12.57 15.32-25.31 22.79-14.27 5.84-21.44 4.28-34.94-2.77-4.99-4.49-9.78-9.34-14.56-14.07-1.78-2.65-17.738-19.43-20.807-22.81a1587 1587 0 0 1-35.452-40.78 3886 3886 0 0 1-131.417-160.64c-13.211-17.14-38.1-48.38-49.058-66.23m273.004-29.839c175.39-5.487 308.06-139.055 302.5-317.28a302.55 302.55 0 0 0-97.34-211.674 322.37 322.37 0 0 0-230.78-87.017l-2.95.158c-87.761 3.909-162.968 35.194-223.361 99.659-115.946 123.765-103.096 319.014 23.105 429.984 66.89 58.819 139.286 87.052 228.826 86.17"/><path fill="url(#a)" d="M1336.57 454.721c.83-3.214.53-5.014 1.55-8.293 2.57 1.995 4.88 3.624 7.56 5.474 37.11 43.565 64.18 106.618 74.82 162.396 43.76 229.473-120.06 422.222-252.77 589.072-18.43 23.17-39.11 45.42-57.91 68.36-4.46 5.46-20.97 23.21-23.65 27.86-10.23 8.79-12.57 15.32-25.31 22.79-14.27 5.84-21.44 4.28-34.94-2.77-4.99-4.49-9.78-9.34-14.56-14.07-1.78-2.65-17.738-19.43-20.807-22.81a1587 1587 0 0 1-35.452-40.78 3886 3886 0 0 1-131.417-160.64c-13.211-17.14-38.1-48.38-49.058-66.23l.853-.16c2.656.93 2.176 1.21 4.219 3.83-1.324-5.06-1.979-14.68-2.294-20.12 8.673 13.19 20.855 28.09 30.41 41.1a2838 2838 0 0 0 123.55 154.89c26.852 31.93 52.918 64.93 81.656 95.08 9.85 10.34 26.73 26.55 41.13 17.87 2.55-1.53 8.87-4.14 10.73-6.14 31.23-33.32 65.6-71.52 93.67-107 106.16-134.19 232.01-277.154 256.25-452.607 10.09-72.976-1.42-151.675-33.69-217.899-12.15-25.274-27.79-47.196-44.54-69.203"/><path fill="url(#b)" d="M774.626 1015.08c-11.669-14.92-25.869-36.285-36.291-52.132-75.818-115.286-126.771-237.118-96.2-377.271 19.959-91.504 82.795-175.394 161.594-225.739a410.85 410.85 0 0 1 313.391-54.25c74.13 16.537 150.54 60.57 202.39 115.684 7.37 7.836 20.48 21.606 26.17 30.53-2.68-1.85-4.99-3.479-7.56-5.474-1.02 3.279-.72 5.079-1.55 8.293-48.31-61.425-121.24-109.05-195.3-131.828-16.7-5.135-42.91-12.504-60.28-13.516-10.25-2.554-31.65-3.429-42.7-3.834a385.16 385.16 0 0 0-215.327 56.343c-81.751 49.11-146.881 128.813-168.545 222.214-11.933 51.449-13.102 119.439.344 170.666 13.665 65.305 53.433 139.595 89.52 195.167 6.811 10.488 25.704 40.179 33.122 48.697.315 5.44.97 15.06 2.294 20.12-2.043-2.62-1.563-2.9-4.219-3.83z"/><path fill="url(#c)" d="M654.762 754.766c-13.446-51.227-12.277-119.217-.344-170.666 21.664-93.401 86.794-173.104 168.545-222.214a385.16 385.16 0 0 1 215.327-56.343c11.05.405 32.45 1.28 42.7 3.834-6.74 2.109-17.28-4.68-24.48.102.09 3.498-.42 1.868 2.09 4.867-.28-.104 22.5 2.634 25.59 3.112l-.19.674c-6.27.164-16.07-1.728-23.3-2.291-20.35-1.585-36.84-1.848-57.12-.819a381.05 381.05 0 0 0-255.78 120.64c-33.82 35.668-61.588 81.738-76.765 128.609-4.803 14.832-6.879 27.67-10.459 42.818-2.95 12.485-1.925 24.281-4.827 36.203.148-.608-7.508 4.388-9.749 6.719-.085 31.564.8 59.05 6.881 89.962.936 4.757 2.419 8.938 2.984 13.67z"/><path fill="rgb(165,80,230)" d="M1024.51 477.203c8.04-1.061 21.29-.212 27.81 4.21 27.05 18.342 52.51 46.063 76.5 68.388-6.75-60.247 9.9-47.929 60.98-45.603 4.5 3.083 8.68 5.895 9.41 11.782 1.31 10.569.72 21.536.74 32.204.03 21.575-.37 43.09.26 64.663 13.6 15.788 33.78 30.52 48.97 46.462 6.76 7.085 29.9 23.273 15.62 37.886-6.36 6.508-38.19 3.796-48.59 3.582 1.17 48.718-.19 101.829.27 150.774.3 31.003-44.02 27.635-66.43 27.591l-59.3-.139-146.891.089c-13.804.006-57.393.798-67.546-1.06a33.67 33.67 0 0 1-17.141-8.952c-3.844-3.764-7.162-9.187-7.791-14.509-1.975-16.721-1.196-36.326-1.182-53.231q.234-50.571-.125-101.142c-15.373.225-45.358 6.46-50.66-12.603a14.07 14.07 0 0 1 1.842-11.551c3.745-5.688 24.042-24.696 29.608-29.999l61.011-57.866 72.599-69.212c18.949-17.809 33.529-36.833 60.036-41.764m-147.215 182.778c6.465 4.328 11.882 8.126 12.87 16.66 1.333 11.518.846 25.596.823 37.258l-.207 83.865c-.017 9.656-1.944 44.547 3.895 49.996 8.749 3.52 58.532 2.191 71.325 1.896l-.454-85.809c.177-73.886 3.968-63.933 75.463-63.829 61.74-.358 64.29-.58 63.18 63.139-.48 27.188-.6 59.863.07 87.252 14.53-.853 61.42 1.031 70.23-3.025 5.4-6.701 3.74-40.711 3.74-51.182l-.37-82.782c-.09-12.099-1.25-31.638 1.79-43.389.89-3.459 6.48-7.591 9.51-9.591-14.79-12.9-29.49-27.779-43.8-41.377l-64.2-60.574c-13.21-12.563-27.88-28.103-42.54-38.941-3.04-2.246-8.62-1.622-12.5-1.448-11.26 7.594-35.046 31.453-45.272 41.408l-58.69 56.804c-13.713 13.506-30.815 31.339-44.863 43.669m184.955 189.557c3.47.105 3.57.568 6.34-.941 1.18-14.944.43-38.842.35-54.805-.09-17.736.63-42.291-.57-59.463-15.42-.864-41.08-1.418-56.64-.868-3.62.303-6.66.102-9.66 1.785-2.04 8.397-1.27 34.845-1.23 44.58l.11 70.061c20.44-.445 40.99.095 61.3-.349"/><path fill="url(#d)" d="M1086.17 1299.59c6.22-.37 16.77-14.15 21.43-18.49.55-.51 1.81 1.82 5.33-.37.87-2.47 1.54-6.61 3.01-7.49 3.86 1.49 3.9 2.26 7.2 1.52l.07-1.3c.13-2.01.07-1.24.4-3.43 4.6 1.92-1.63 2.55 4.48 2.73l.24-2.34 4.06.58c1.3-1.57 4.57-5.82 6-6.72 3.06 1.75 3.07 1.92 5.42 4.33 8.4 1.57 11.71-6.14 23.83-3.02l-1.93 3.07.44 1.53c4.07 1.22 5.83-.22 9.11 1.99 3.61.16 3.57-.04 6.75-1.4l.85.15-.05 3.32 1.12.97 2.46-.45c1.02-1.93 1.02-1.9 1.46-4.03 10.15 1.65 11.53 17.2 23.54 6.35 2.8 1.89 3.45 4 4.99 7.03 2.79 1.58 1.31 1.33 4.59.55l2.61-3.24 1.37.19c1 5.41 7.4 8.52 10.81 15.07l2.07.25c2.12-2.55 2.52-3.43 5.91-4.31 4.8 2.05 5.49 4.2 7.48 9.2l.52 1.33c1.76 4.37 1.83 4.18 7.02 3.52 2.01 2.01 1.87 2.01 3.08 4.63l3.09 1.24-.37 1.31-4.18 2.09c-1.02 3.73-1.24 5.91-1.72 9.79-1.57-.03-9.66-5.97-15.11-6.71.36 4.5.69 6.49 1.7 10.89l.94-.5c.8-3.9-.02-2.13 3.01-5.26l2.04-.24c-.86 2.6-3.25 5.59-4.88 7.93-2.24.31-1.24.32-3.35-.56-1.74-.72-3.76-1.28-5.55-.31-4.2 2.28-8.1 6.86-12.87 7.99.06-.02-8.71-1.08-9-.87-.2.14-2.19 4.7-4.54 4.27-6.24-1.13-7.38-3.5-12.37 1.75-2.66-.34-2.9-.25-5.32-1.29-6.16 1.49-9.33 2.29-14.28 6.16-7.91-3.5-6.69-4.72-11.8 3.26l-2.2.57c-2.73-1.63-2.78-1.63-5.01-3.88-9.73.17-7.84 3.42-15.74 6.58-2.56 1.03-3.31-3.27-9.48-2.44-1.16 1.83-2.09 3.37-3.15 5.26-4.79-.06-29.18-3.62-30.76-2.27l-.27 1.6c-10.58.29-23.57.63-34.38.75-1.47.02-1.53-3.48-4.86-1.66l-.17 1.31 3.1 2.31-.65 1.01.47-1.22c-3.76 3.09-29.46-1.65-35.27.51-10.09 3.75-11.31 1.69-20.41-2.51-12.403 9.6-19.495-7.09-35.11.97-6.605-.87-8.282-3.63-14.018-4.6-2.486-.42-2.891 3.5-6.371 2.63-5.748-1.43-14.877-8.13-19.911-6.39l-.139 2.91-1.457.48c-.363-1.29-.727-2.59-1.091-3.88-6.848 1.23-1.18 3.79-6.997 2.36-2.062-1.96-3.262-3.02-5.032-5.32-7.446-.03-1.232 2.69-8.468 1.36-3.292-3.47-2.235-3.5-5.921-3.95-2.298 1.31-2.127 1.5-3.504 3.85-3.76-2.02-14.136-9.31-18.398-7.58-3.546 1.43-5.042 1.84-8.526.95l-1.119-2.89-7.918-.18c-1.483-2.77-2.67-5.06-3.973-7.92-6.856-1.84-9.598-1.83-15.018 3.54-1.543-5.45.643-5.32-2.069-8.63-5.838-1.03-8.856-.45-12.336-6.14 3.981 1.87 3.196 2.23 6.947 1.87 1.876-3.24 1.157-1.5 1.154-5.99-4.28-2.7-5.375-6.96-7.391-11.5l.369-1.24 7.73.81c2.289-2.01 1.243-6.25 4.545-10.26l2.531-1.11c1.734 1.55 1.24 1.43 2.206 3.96 2.881 1.14 1.534 1.26 4.154.17.225-2.5.275-2.62-.096-5.09 5.118-3.8 5.957-2.75 11.895-.55 6.152-1.52 10.564-5.94 15.59-7.02l.899.64c2.54 1.78 3.35 2.7 6.441 2.85 3.665-3.78-3.397-3.85 7.517-4.93 7.566-.76 17.506 2.91 22.902-2.38.82-.8 2.618-1.41 3.74-1.82l1.896.71c1.733 4.35.707 3.84 3.848 5.2 5.138-2.24 7.026-5.08 13.014-3.61 10.687 2.63 22.748 2.13 33.117 3.53l1.475 3.35 2.435-.33c1.053-1.46 1.963-2.65 3.367-3.79 10.064 3.12 9.553 13.22 19.421 16.71 3.22 1.14 7.19 4.68 9.74 6.94.79-1.11.66-.62.79-1.32 4.78 4.73 9.57 9.58 14.56 14.07 2.36 7.86 14.23 14.63 22.05 16.69 4.48-1.54 8.21-2.41 11.89-5.32 1.03-3.18.88-1.47-.64-5.35l-.23 1.35-.94-1.83 2.81-2.77c12.74-7.47 15.08-14 25.31-22.79"/><path fill="rgb(38,38,38)" d="m843.567 1412.38 20.457-.45c-.869 25.14-.242 53.01-.13 78.28l-21.794-.26.163-19.91-27.253.15c-16.25 15.69-31.133 16.5-52.107 14.22-15.759-4.13-28.136-13.52-29.312-30.84-2.33-34.33 34.762-45.48 62.036-36.86 4.942 1.56 10.883 7.31 16.21 8.67 9.234 1.88 20.608 1.07 30.171.89-.055-4.83-.773-10.24 1.559-13.89m-73.813 18.83c-27.062 12.17-15.947 40.99 13.833 36.78 24.907-10.63 17.656-40.47-13.833-36.78m48.853 24.7 23.683.02-.153-15.88-24.16.32c.443 5.4.962 10.1.63 15.54m87.694-41.65c21.769 1.54 45.427-.2 67.343.43 9.819.28 21.329.11 31.086-.53l-.3 60.08c7.13.33 15.32-.06 22.56-.24l-.16 18.59c-20.01-.97-46.287 1.5-64.885-.33l.225 59.84-21.417-.11.105-22.24c-.158-12.39.05-25.17.112-37.59-19.534.99-39.046-.46-59.096.9-.104-6.69-.312-12.17-.854-18.83 30.839-.23 72.567-.89 102.853.79-.262-14.28-.217-28.57.135-42.86-26.213.34-53.634-.5-79.692.78-.139-5.18-1.548-15.22 1.985-18.68m152.909 81.53 108.56.26c-.11 18.81-.56 38.79-.02 57.51-4.99.82-27.31.42-33.71.4-25.05-.22-50.1-.23-75.15-.02zm20.84 40.05 66.03.12.02-23.77c-20.71-.02-45.77.62-66.12-.13zm230.63-122.3 11.48-.78-.15 139.43-20.95-.1.13-70.19-14.84-.08c.28 21.14.38 42.29.28 63.43.01 4.52.82 2.83-1.45 5.68-4.77 1.14-13.22.2-19.17.27.59-14.37.06-32.69.03-47.3l-.12-88.79 20.42-.12c-.18 16.36.27 33.3.16 49.87l14.82.28c-.36-16.87-.16-34.46-.22-51.39zm-513.433 79.9c6.219-.61 13.627.2 19.869-.07 58.524-2.52 70.751 54.86 4.16 59.2-15.092 2.48-44.229-.36-56.869-9.77-11.408-8.5-15.104-25.17-4.53-35.96 10.466-10.67 23.355-12.52 37.37-13.4m30.297 41.38c12.298-2.19 24.637-12.49 9.764-21-9.435-5.4-35.274-4.25-46.851-3.63-24.077 7.76-15.988 23.16 4.386 25.05 10.966 1.02 21.763 1.14 32.701-.42m248.736-120.66c13.57-.77 25.27-1.21 37.94 5.5 17.35 8.95 22.8 32.35 12.06 48.41-7.22 10.79-17.01 14.58-29.06 16.91-58.74 10.65-77.23-58.98-20.94-70.82m17.83 53.76c18.32-6.24 21.08-21.36 8.09-35.06-9.6-3.35-11.61-3.29-21.85-2.69-10.96 4.26-21.05 12.48-15.18 25.92 5.41 12.37 17.13 12.85 28.94 11.83m96.95-45.98c21.05.25 42.09.26 63.13.01-.41 5.58-.24 12.46-.24 18.17-13.38-.38-27.78-.11-41.23-.07.27 20.67.23 41.35-.14 62.02l18.96.07 23.64-.23c-1.02 5.97-1.01 12.09-1.18 18.15-19.31-.53-43.88-.49-63.08.17zm-43.4-9.41c5.78.24 14.12-.25 20.09-.42-1.35 10.16-.51 65.35-.12 77.8l-21.58.08c-.01-11.7-2.21-71.72 1.61-77.46"/><path fill="rgb(96,57,136)" fill-opacity=".31" d="M1025.92 1319.61c13.5 7.05 20.67 8.61 34.94 2.77l-2.81 2.77.94 1.83.23-1.35c1.52 3.88 1.67 2.17.64 5.35-3.68 2.91-7.41 3.78-11.89 5.32-7.82-2.06-19.69-8.83-22.05-16.69"/></svg>